<svg width="37" height="33" viewBox="0 0 37 33" fill="none" xmlns="http://www.w3.org/2000/svg">
<g opacity="0.5">
<path d="M19.0554 12.6946L20.3915 5.20153C20.4434 4.90485 20.4361 4.60082 20.37 4.30698C20.3039 4.01314 20.1802 3.73529 20.0063 3.48944C19.8323 3.24359 19.6113 3.0346 19.3562 2.87453C19.1011 2.71445 18.8168 2.60645 18.5197 2.55674C17.9198 2.44931 17.3017 2.58383 16.8007 2.93088C16.2996 3.27793 15.9564 3.80927 15.846 4.4087L13.1739 19.3948L12.9517 20.5559L9.96147 17.4911C9.50104 17.0299 8.88285 16.7604 8.23156 16.737C7.58028 16.7137 6.94436 16.9382 6.45207 17.3652C5.95977 17.7922 5.64773 18.3901 5.57887 19.0381C5.51001 19.6862 5.68946 20.3362 6.08103 20.8572L10.666 26.9715C11.7069 28.3594 12.2273 29.0533 12.8528 29.592C13.8084 30.415 14.9536 30.9876 16.1854 31.2583C16.9919 31.4348 17.8593 31.4348 19.5941 31.4348H23.2493C25.0048 31.4347 26.7063 30.8275 28.0653 29.7162C29.4243 28.6048 30.3572 27.0578 30.7058 25.3372L32.0267 18.8196L32.1606 18.0694C32.2125 17.7727 32.2052 17.4687 32.1391 17.1748C32.073 16.881 31.9494 16.6031 31.7754 16.3573C31.6014 16.1114 31.3805 15.9024 31.1254 15.7424C30.8702 15.5823 30.5859 15.4743 30.2889 15.4246C29.6887 15.3167 29.0702 15.451 28.5688 15.7981C28.0674 16.1452 27.724 16.6768 27.6137 17.2765L27.4797 18.0268M19.0554 12.6946L18.6552 14.9422M19.0554 12.6946C19.1657 12.0948 19.5092 11.5632 20.0106 11.2161C20.5119 10.8691 21.1304 10.7347 21.7306 10.8426C22.0277 10.8923 22.312 11.0003 22.5671 11.1604C22.8222 11.3205 23.0431 11.5295 23.2171 11.7753C23.3911 12.0212 23.5147 12.299 23.5808 12.5929C23.647 12.8867 23.6543 13.1907 23.6024 13.4874L23.3345 14.9863M23.3345 14.9863L23.2006 15.735M23.3345 14.9863C23.4452 14.3868 23.7888 13.8554 24.29 13.5084C24.7913 13.1614 25.4096 13.0269 26.0097 13.1344C26.3067 13.1841 26.5908 13.292 26.8458 13.452C27.1008 13.612 27.3217 13.8208 27.4956 14.0665C27.6696 14.3122 27.7933 14.5899 27.8595 14.8835C27.9257 15.1772 27.9332 15.4811 27.8815 15.7776L27.7476 16.5278M36 4.80435H26.1087M36 4.80435C36 3.73913 32.9656 1.7487 32.1956 1M36 4.80435C36 5.86957 32.9656 7.86001 32.1956 8.6087" stroke="black" stroke-width="1.52174" stroke-linecap="round" stroke-linejoin="round"/>
<path d="M0.999798 4.80435H10.8911M0.999798 4.80435C0.999798 3.73913 4.03415 1.7487 4.80415 1M0.999798 4.80435C0.999798 5.86957 4.03415 7.86001 4.80415 8.6087" stroke="black" stroke-width="1.52174" stroke-linecap="round" stroke-linejoin="round"/>
</g>
</svg>
