<svg width="112" height="76" viewBox="0 0 112 76" fill="none" xmlns="http://www.w3.org/2000/svg">
    <path d="M67.5 27.5283L40.8259 42.9781" stroke="black" stroke-width="2"/>
    <path d="M10.4085 45.1383V74.8332H53.4661V46.623M53.4661 46.623L56.4356 49.5925L60.8898 45.1383L31.1949 15.4434L1.5 45.1383L5.95423 49.5925L31.1949 24.3518L53.4661 46.623Z" stroke="black" stroke-width="2"/>
    <path d="M44.5574 28.8062V22.8672H53.4659V37.7146" stroke="black" stroke-width="2"/>
    <path d="M23.7712 74.8332V52.562H40.1034V74.8332" stroke="black" stroke-width="2"/>
    <rect x="70.7407" y="3.06162" width="36.6186" height="4.73333" fill="#D2553C" stroke="black" stroke-width="1.8"/>
    <rect x="74.0814" y="23.4781" width="29.9371" height="3.1" fill="#D2553C" stroke="black" stroke-width="1.8"/>
    <rect x="110.7" y="1.42832" width="47.2" height="3.21112" transform="rotate(90 110.7 1.42832)" fill="#D2553C" stroke="black" stroke-width="1.8"/>
    <rect x="70.6111" y="1.42832" width="47.2" height="3.21112" transform="rotate(90 70.6111 1.42832)" fill="#D2553C" stroke="black" stroke-width="1.8"/>
    <rect x="107.359" y="7.96152" width="40.6667" height="3.21112" transform="rotate(90 107.359 7.96152)" fill="#D2553C" stroke="black" stroke-width="1.8"/>
    <rect x="73.9518" y="7.96152" width="40.6667" height="3.21112" transform="rotate(90 73.9518 7.96152)" fill="#D2553C" stroke="black" stroke-width="1.8"/>
    <rect x="104.019" y="26.7452" width="21.8833" height="3.21112" transform="rotate(90 104.019 26.7452)" fill="#D2553C" stroke="black" stroke-width="1.8"/>
    <rect x="77.2926" y="26.7452" width="21.8833" height="3.21112" transform="rotate(90 77.2926 26.7452)" fill="#D2553C" stroke="black" stroke-width="1.8"/>
</svg>
