<svg width="112" height="70" viewBox="0 0 112 70" fill="none" xmlns="http://www.w3.org/2000/svg">
<path d="M68 21.3476L41.3259 36.7974" stroke="black" stroke-width="2"/>
<path d="M10.9085 38.9575V68.6524H53.9661V40.4423M53.9661 40.4423L56.9356 43.4118L61.3898 38.9575L31.6949 9.26263L2 38.9575L6.45423 43.4118L31.6949 18.1711L53.9661 40.4423Z" stroke="black" stroke-width="2"/>
<path d="M45.0574 22.6253V16.6863H53.9659V31.5338" stroke="black" stroke-width="2"/>
<path d="M24.2712 68.6524V46.3812H40.6034V68.6524" stroke="black" stroke-width="2"/>
<rect x="67" y="1.3476" width="38" height="28.0111" fill="#D2553C" stroke="black" stroke-width="2"/>
<path d="M66 14.933H104.378" stroke="black" stroke-width="2"/>
<path d="M77.1537 2.0636V14.5042" stroke="black" stroke-width="2"/>
<path d="M96.8869 2.0636V14.0752" stroke="black" stroke-width="2"/>
<path d="M84 14.933V29.5186" stroke="black" stroke-width="2"/>
<rect x="91" y="1.3476" width="19" height="28.171" fill="white"/>
<path d="M92.5 6.8476C93.2093 7.49377 95.7937 9.64993 96.067 10.652C96.1567 10.9809 96.2638 11.3081 96.3591 11.6363C96.5036 12.134 96.8081 12.6637 97.2799 12.9128C97.9891 13.287 99.1044 14.1733 99.274 15.0212" stroke="#D2553C" stroke-width="2" stroke-linecap="round"/>
<path d="M92.5 20.8476C93.2093 21.4938 95.7937 23.6499 96.067 24.652C96.1567 24.9809 96.2638 25.3081 96.3591 25.6363C96.5036 26.134 96.8081 26.6637 97.2799 26.9128C97.9891 27.287 99.1044 28.1733 99.274 29.0212" stroke="#D2553C" stroke-width="2" stroke-linecap="round"/>
<path d="M93 1.3476C94.1413 2.21094 97.1097 4.38051 97.5864 5.78401C97.6965 6.10826 99.1666 7.1515 99.5 7.3476C100.778 8.09913 100.933 7.92101 102.248 8.57826C103.168 9.03833 103.881 10.4393 104.127 11.4043C104.423 12.5606 104.858 13.2091 105.639 14.0207C105.872 14.2627 106.864 15.0521 107 15.3246" stroke="#D2553C" stroke-width="2" stroke-linecap="round"/>
<path d="M93 15.3476C94.1413 16.2109 97.1097 18.3805 97.5864 19.784C97.6965 20.1083 99.1666 21.1515 99.5 21.3476C100.778 22.0991 100.933 21.921 102.248 22.5783C103.168 23.0383 103.881 24.4393 104.127 25.4043C104.423 26.5606 104.858 27.2091 105.639 28.0207C105.872 28.2627 106.864 29.0521 107 29.3246" stroke="#D2553C" stroke-width="2" stroke-linecap="round"/>
<path d="M101 1.3476C102.166 1.59742 103.5 2.8476 105 5.3476C106.5 7.8476 109.729 8.3476 110.5 8.3476" stroke="#D2553C" stroke-width="2" stroke-linecap="round"/>
<path d="M101 15.3476C102.166 15.5974 103.5 16.8476 105 19.3476C106.5 21.8476 109.729 22.3476 110.5 22.3476" stroke="#D2553C" stroke-width="2" stroke-linecap="round"/>
<rect x="92" y="1.3476" width="19" height="14" stroke="black" stroke-width="2"/>
<rect x="92" y="15.3476" width="19" height="14" stroke="black" stroke-width="2"/>
</svg>
