<svg width="113" height="76" viewBox="0 0 113 76" fill="none" xmlns="http://www.w3.org/2000/svg">
<path d="M68 27.3476L41.3259 42.7974" stroke="black" stroke-width="2"/>
<path d="M10.9085 44.9575V74.6524H53.9661V46.4423M53.9661 46.4423L56.9356 49.4118L61.3898 44.9575L31.6949 15.2626L2 44.9575L6.45423 49.4118L31.6949 24.1711L53.9661 46.4423Z" stroke="black" stroke-width="2"/>
<path d="M45.0574 28.6253V22.6864H53.9659V37.5338" stroke="black" stroke-width="2"/>
<path d="M24.2712 74.6524V52.3813H40.6034V74.6524" stroke="black" stroke-width="2"/>
<rect x="71.2407" y="2.8809" width="36.6186" height="4.73333" fill="#D2553C" stroke="black" stroke-width="1.8"/>
<rect x="74.5814" y="23.2974" width="29.9371" height="3.1" fill="#D2553C" stroke="black" stroke-width="1.8"/>
<rect x="111.2" y="1.2476" width="47.2" height="3.21112" transform="rotate(90 111.2 1.2476)" fill="#D2553C" stroke="black" stroke-width="1.8"/>
<rect x="71.1111" y="1.2476" width="47.2" height="3.21112" transform="rotate(90 71.1111 1.2476)" fill="#D2553C" stroke="black" stroke-width="1.8"/>
<rect x="107.859" y="7.7808" width="40.6667" height="3.21112" transform="rotate(90 107.859 7.7808)" fill="#D2553C" stroke="black" stroke-width="1.8"/>
<rect x="74.4518" y="7.7808" width="40.6667" height="3.21112" transform="rotate(90 74.4518 7.7808)" fill="#D2553C" stroke="black" stroke-width="1.8"/>
<rect x="104.519" y="26.5645" width="21.8833" height="3.21112" transform="rotate(90 104.519 26.5645)" fill="#D2553C" stroke="black" stroke-width="1.8"/>
<rect x="77.7926" y="26.5645" width="21.8833" height="3.21112" transform="rotate(90 77.7926 26.5645)" fill="#D2553C" stroke="black" stroke-width="1.8"/>
</svg>
