<svg width="112" height="60" viewBox="0 0 112 60" fill="none" xmlns="http://www.w3.org/2000/svg">
<path d="M109.922 44.6176L104.269 44.5956" stroke="black" stroke-width="2" stroke-linecap="round"/>
<path d="M111 9.76401L103.463 9.73462" stroke="black" stroke-width="2" stroke-linecap="round"/>
<path d="M110.918 30.4899L103.382 30.4605" stroke="black" stroke-width="2" stroke-linecap="round"/>
<path d="M110.838 51.2158L103.301 51.1864" stroke="black" stroke-width="2" stroke-linecap="round"/>
<path d="M110.889 38.0267L105.237 38.0046" stroke="black" stroke-width="2" stroke-linecap="round"/>
<path d="M110.978 15.4166L105.325 15.3946" stroke="black" stroke-width="2" stroke-linecap="round"/>
<path d="M110.949 22.9534L105.296 22.9314" stroke="black" stroke-width="2" stroke-linecap="round"/>
<rect x="94.201" y="2.03372" width="16.799" height="56.9024" stroke="black" stroke-width="2"/>
<path d="M1 43.9266C5.22629 36.9738 20.0183 37.7463 22.1315 43.9266C23.8877 49.0631 22.7247 18.4466 22.2817 7.95895C22.1915 5.82226 20.9772 3.88569 19.0249 3.01272C13.4952 0.540125 9.49787 0.218408 3.96122 2.90149C2.0733 3.81638 1 5.80924 1 7.90717V43.9266ZM1 43.9266C1 49.3342 4.16972 53.1968 11.5657 53.1968C18.9617 53.1968 85.5259 53.1968 85.5259 53.1968V8.39042H23.188" stroke="black" stroke-width="2"/>
<path d="M41.6774 58.9796C41.9182 53.5667 44.1064 48.4157 47.8483 44.4835L48.2379 44.0841C52.4536 39.8684 58.1715 37.5001 64.1334 37.5001L64.692 37.507C70.2658 37.6453 75.5905 39.851 79.6295 43.6945L80.0289 44.0841C84.0083 48.0635 86.3404 53.3815 86.5895 58.9796L41.6774 58.9796Z" fill="#E9F4FF" stroke="black" stroke-width="2"/>
<path d="M76.134 41.7179V58.9361" stroke="black" stroke-width="2"/>
<path d="M74.043 20.282C73.913 21.7544 73.5217 23.5767 72.9346 25.3474C72.2453 27.4261 71.3358 29.2827 70.3857 30.3806L70.1953 30.5896C67.9375 32.9414 65.5023 34.4567 62.5684 34.4568C59.8178 34.4568 57.5058 33.1254 55.3672 31.0212L54.9414 30.5896C53.9232 29.5288 52.9363 27.5647 52.2012 25.3474C51.6141 23.5767 51.2237 21.7543 51.0938 20.282H74.043Z" fill="#E9F4FF" stroke="black" stroke-width="2"/>
<mask id="path-13-inside-1_762_18702" fill="white">
<path d="M78.2212 20.8473C78.2212 18.7917 77.8163 16.7563 77.0296 14.8572C76.243 12.958 75.09 11.2325 73.6365 9.77897C72.183 8.32546 70.4574 7.17248 68.5583 6.38584C66.6592 5.59921 64.6238 5.19434 62.5682 5.19434C60.5126 5.19434 58.4772 5.59921 56.5781 6.38584C54.679 7.17248 52.9534 8.32547 51.4999 9.77898C50.0464 11.2325 48.8934 12.9581 48.1068 14.8572C47.3202 16.7563 46.9153 18.7917 46.9153 20.8473L62.5682 20.8473H78.2212Z"/>
</mask>
<path d="M78.2212 20.8473C78.2212 18.7917 77.8163 16.7563 77.0296 14.8572C76.243 12.958 75.09 11.2325 73.6365 9.77897C72.183 8.32546 70.4574 7.17248 68.5583 6.38584C66.6592 5.59921 64.6238 5.19434 62.5682 5.19434C60.5126 5.19434 58.4772 5.59921 56.5781 6.38584C54.679 7.17248 52.9534 8.32547 51.4999 9.77898C50.0464 11.2325 48.8934 12.9581 48.1068 14.8572C47.3202 16.7563 46.9153 18.7917 46.9153 20.8473L62.5682 20.8473H78.2212Z" fill="#D2553C" stroke="black" stroke-width="4" mask="url(#path-13-inside-1_762_18702)"/>
<path d="M70.9165 9.36847L70.9165 13.5426" stroke="black" stroke-width="2"/>
<path d="M62.5681 6.23788L62.5681 10.412" stroke="black" stroke-width="2"/>
<path d="M54.22 9.36847L54.22 13.5426" stroke="black" stroke-width="2"/>
<path d="M51.0894 41.7179V58.4144" stroke="black" stroke-width="2"/>
</svg>
