<svg width="112" height="68" viewBox="0 0 112 68" fill="none" xmlns="http://www.w3.org/2000/svg">
<path d="M68 18.8476L41.3259 34.2974" stroke="black" stroke-width="2"/>
<path d="M10.9085 36.4575V66.1524H53.9661V37.9423M53.9661 37.9423L56.9356 40.9118L61.3898 36.4575L31.6949 6.76263L2 36.4575L6.45423 40.9118L31.6949 15.6711L53.9661 37.9423Z" stroke="black" stroke-width="2"/>
<path d="M45.0574 20.1253V14.1864H53.9659V29.0338" stroke="black" stroke-width="2"/>
<path d="M24.2712 66.1524V43.8812H40.6034V66.1524" stroke="black" stroke-width="2"/>
<mask id="mask0_1058_172" style="mask-type:alpha" maskUnits="userSpaceOnUse" x="67" y="0" width="45" height="37">
<rect x="67" y="0.847595" width="45" height="36" fill="#D2553C"/>
</mask>
<g mask="url(#mask0_1058_172)">
<mask id="path-6-inside-1_1058_172" fill="white">
<path d="M59.9767 2.8476C60.6225 4.44131 62.0082 5.54291 63.6134 5.54291C65.2184 5.54278 66.6033 4.44114 67.2491 2.8476H68.0255C68.6714 4.44126 70.0561 5.54388 71.6613 5.54388C73.2664 5.54388 74.6511 4.44126 75.297 2.8476H76.0734C76.7192 4.44123 78.104 5.54388 79.7091 5.54388C81.3142 5.5438 82.699 4.44124 83.3448 2.8476H84.1212C84.7671 4.44125 86.1518 5.54386 87.757 5.54388C89.3621 5.54388 90.7468 4.44125 91.3927 2.8476H92.1691C92.8149 4.44123 94.1997 5.54388 95.8048 5.54388C97.4099 5.5438 98.7947 4.44124 99.4406 2.8476H100.217C100.863 4.44125 102.248 5.54386 103.853 5.54388C105.458 5.54388 106.843 4.44125 107.488 2.8476H108.265C108.911 4.44137 110.296 5.54388 111.901 5.54388C113.507 5.54369 114.891 4.4412 115.537 2.8476H116.313C116.958 4.44122 118.343 5.54375 119.948 5.54388C121.554 5.54388 122.939 4.44139 123.585 2.8476H124.361C125.007 4.44123 126.392 5.54388 127.997 5.54388C129.602 5.5438 130.987 4.44124 131.633 2.8476H132.408C133.054 4.44137 134.44 5.54388 136.045 5.54388C137.65 5.54369 139.035 4.4412 139.681 2.8476H140.068V19.0214H59.589V2.8476H59.9767Z"/>
</mask>
<path d="M59.9767 2.8476C60.6225 4.44131 62.0082 5.54291 63.6134 5.54291C65.2184 5.54278 66.6033 4.44114 67.2491 2.8476H68.0255C68.6714 4.44126 70.0561 5.54388 71.6613 5.54388C73.2664 5.54388 74.6511 4.44126 75.297 2.8476H76.0734C76.7192 4.44123 78.104 5.54388 79.7091 5.54388C81.3142 5.5438 82.699 4.44124 83.3448 2.8476H84.1212C84.7671 4.44125 86.1518 5.54386 87.757 5.54388C89.3621 5.54388 90.7468 4.44125 91.3927 2.8476H92.1691C92.8149 4.44123 94.1997 5.54388 95.8048 5.54388C97.4099 5.5438 98.7947 4.44124 99.4406 2.8476H100.217C100.863 4.44125 102.248 5.54386 103.853 5.54388C105.458 5.54388 106.843 4.44125 107.488 2.8476H108.265C108.911 4.44137 110.296 5.54388 111.901 5.54388C113.507 5.54369 114.891 4.4412 115.537 2.8476H116.313C116.958 4.44122 118.343 5.54375 119.948 5.54388C121.554 5.54388 122.939 4.44139 123.585 2.8476H124.361C125.007 4.44123 126.392 5.54388 127.997 5.54388C129.602 5.5438 130.987 4.44124 131.633 2.8476H132.408C133.054 4.44137 134.44 5.54388 136.045 5.54388C137.65 5.54369 139.035 4.4412 139.681 2.8476H140.068V19.0214H59.589V2.8476H59.9767Z" fill="#D2553C"/>
<path d="M59.9767 2.8476L61.8303 2.09645L61.3242 0.847595H59.9767V2.8476ZM63.6134 5.54291V7.54291H63.6136L63.6134 5.54291ZM67.2491 2.8476V0.847595H65.9017L65.3956 2.09639L67.2491 2.8476ZM68.0255 2.8476L69.8791 2.09641L69.373 0.847595H68.0255V2.8476ZM71.6613 5.54388V7.54388H71.6613L71.6613 5.54388ZM75.297 2.8476V0.847595H73.9495L73.4434 2.09641L75.297 2.8476ZM76.0734 2.8476L77.9269 2.09639L77.4208 0.847595H76.0734V2.8476ZM79.7091 5.54388V7.54388H79.7092L79.7091 5.54388ZM83.3448 2.8476V0.847595H81.9974L81.4913 2.09644L83.3448 2.8476ZM84.1212 2.8476L85.9748 2.09642L85.4687 0.847595H84.1212V2.8476ZM87.757 5.54388L87.7569 7.54388H87.757V5.54388ZM91.3927 2.8476V0.847595H90.0452L89.5391 2.09641L91.3927 2.8476ZM92.1691 2.8476L94.0226 2.09639L93.5165 0.847595H92.1691V2.8476ZM95.8048 5.54388V7.54388H95.8049L95.8048 5.54388ZM99.4406 2.8476V0.847595H98.0931L97.587 2.09644L99.4406 2.8476ZM100.217 2.8476L102.07 2.09642L101.564 0.847595H100.217V2.8476ZM103.853 5.54388L103.853 7.54388H103.853V5.54388ZM107.488 2.8476V0.847595H106.141L105.635 2.09641L107.488 2.8476ZM108.265 2.8476L110.118 2.09649L109.612 0.847595H108.265V2.8476ZM111.901 5.54388V7.54388H111.902L111.901 5.54388ZM115.537 2.8476V0.847595H114.19L113.684 2.09647L115.537 2.8476ZM116.313 2.8476L118.166 2.09645L117.66 0.847595H116.313V2.8476ZM119.948 5.54388L119.948 7.54388H119.948V5.54388ZM123.585 2.8476V0.847595H122.238L121.731 2.09651L123.585 2.8476ZM124.361 2.8476L126.215 2.09639L125.709 0.847595H124.361V2.8476ZM127.997 5.54388V7.54388H127.997L127.997 5.54388ZM131.633 2.8476V0.847595H130.285L129.779 2.09644L131.633 2.8476ZM132.408 2.8476L134.262 2.09649L133.756 0.847595H132.408V2.8476ZM136.045 5.54388V7.54388H136.045L136.045 5.54388ZM139.681 2.8476V0.847595H138.333L137.827 2.09647L139.681 2.8476ZM140.068 2.8476H142.068V0.847595H140.068V2.8476ZM140.068 19.0214V21.0214H142.068V19.0214H140.068ZM59.589 19.0214H57.589V21.0214H59.589V19.0214ZM59.589 2.8476V0.847595H57.589V2.8476H59.589ZM59.9767 2.8476L58.1231 3.59874C59.0065 5.77865 61.0258 7.54291 63.6134 7.54291V5.54291V3.54291C62.9906 3.54291 62.2386 3.10397 61.8303 2.09645L59.9767 2.8476ZM63.6134 5.54291L63.6136 7.54291C66.2014 7.5427 68.2195 5.77797 69.1027 3.5988L67.2491 2.8476L65.3956 2.09639C64.9871 3.1043 64.2355 3.54286 63.6132 3.54291L63.6134 5.54291ZM67.2491 2.8476V4.8476H68.0255V2.8476V0.847595H67.2491V2.8476ZM68.0255 2.8476L66.1719 3.59878C67.0548 5.77718 69.0724 7.54388 71.6613 7.54388V5.54388V3.54388C71.0398 3.54388 70.288 3.10535 69.8791 2.09641L68.0255 2.8476ZM71.6613 5.54388L71.6613 7.54388C74.2501 7.54388 76.2677 5.77718 77.1506 3.59878L75.297 2.8476L73.4434 2.09641C73.0345 3.10534 72.2827 3.54388 71.6613 3.54388L71.6613 5.54388ZM75.297 2.8476V4.8476H76.0734V2.8476V0.847595H75.297V2.8476ZM76.0734 2.8476L74.2198 3.5988C75.1026 5.77713 77.1202 7.54388 79.7091 7.54388V5.54388V3.54388C79.0877 3.54388 78.3358 3.10533 77.9269 2.09639L76.0734 2.8476ZM79.7091 5.54388L79.7092 7.54388C82.2979 7.54375 84.3156 5.77727 85.1984 3.59875L83.3448 2.8476L81.4913 2.09644C81.0825 3.10521 80.3306 3.54385 79.709 3.54388L79.7091 5.54388ZM83.3448 2.8476V4.8476H84.1212V2.8476V0.847595H83.3448V2.8476ZM84.1212 2.8476L82.2676 3.59877C83.1505 5.77721 85.1681 7.54384 87.7569 7.54388L87.757 5.54388L87.757 3.54388C87.1355 3.54387 86.3836 3.1053 85.9748 2.09642L84.1212 2.8476ZM87.757 5.54388V7.54388C90.3458 7.54388 92.3634 5.77716 93.2463 3.59878L91.3927 2.8476L89.5391 2.09641C89.1302 3.10534 88.3784 3.54388 87.757 3.54388V5.54388ZM91.3927 2.8476V4.8476H92.1691V2.8476V0.847595H91.3927V2.8476ZM92.1691 2.8476L90.3155 3.5988C91.1983 5.77713 93.2159 7.54388 95.8048 7.54388V5.54388V3.54388C95.1834 3.54388 94.4315 3.10533 94.0226 2.09639L92.1691 2.8476ZM95.8048 5.54388L95.8049 7.54388C98.3936 7.54375 100.411 5.77727 101.294 3.59875L99.4406 2.8476L97.587 2.09644C97.1782 3.10521 96.4263 3.54385 95.8047 3.54388L95.8048 5.54388ZM99.4406 2.8476V4.8476H100.217V2.8476V0.847595H99.4406V2.8476ZM100.217 2.8476L98.3633 3.59877C99.2462 5.77721 101.264 7.54384 103.853 7.54388L103.853 5.54388L103.853 3.54388C103.231 3.54387 102.479 3.1053 102.07 2.09642L100.217 2.8476ZM103.853 5.54388V7.54388C106.442 7.54388 108.459 5.77716 109.342 3.59878L107.488 2.8476L105.635 2.09641C105.226 3.10534 104.474 3.54388 103.853 3.54388V5.54388ZM107.488 2.8476V4.8476H108.265V2.8476V0.847595H107.488V2.8476ZM108.265 2.8476L106.411 3.5987C107.294 5.77794 109.313 7.54388 111.901 7.54388V5.54388V3.54388C111.279 3.54388 110.527 3.10479 110.118 2.09649L108.265 2.8476ZM111.901 5.54388L111.902 7.54388C114.49 7.54357 116.508 5.77738 117.391 3.59872L115.537 2.8476L113.684 2.09647C113.275 3.10502 112.523 3.54381 111.901 3.54388L111.901 5.54388ZM115.537 2.8476V4.8476H116.313V2.8476V0.847595H115.537V2.8476ZM116.313 2.8476L114.459 3.59874C115.342 5.77732 117.36 7.54366 119.948 7.54388L119.948 5.54388L119.949 3.54388C119.327 3.54383 118.575 3.10512 118.166 2.09645L116.313 2.8476ZM119.948 5.54388V7.54388C122.537 7.54388 124.556 5.77798 125.439 3.59868L123.585 2.8476L121.731 2.09651C121.323 3.1048 120.571 3.54388 119.948 3.54388V5.54388ZM123.585 2.8476V4.8476H124.361V2.8476V0.847595H123.585V2.8476ZM124.361 2.8476L122.508 3.5988C123.391 5.77713 125.408 7.54388 127.997 7.54388V5.54388V3.54388C127.376 3.54388 126.624 3.10533 126.215 2.09639L124.361 2.8476ZM127.997 5.54388L127.997 7.54388C130.586 7.54375 132.604 5.77727 133.487 3.59875L131.633 2.8476L129.779 2.09644C129.371 3.10521 128.619 3.54385 127.997 3.54388L127.997 5.54388ZM131.633 2.8476V4.8476H132.408V2.8476V0.847595H131.633V2.8476ZM132.408 2.8476L130.555 3.5987C131.438 5.77794 133.457 7.54388 136.045 7.54388V5.54388V3.54388C135.423 3.54388 134.671 3.10479 134.262 2.09649L132.408 2.8476ZM136.045 5.54388L136.045 7.54388C138.634 7.54357 140.652 5.77738 141.534 3.59872L139.681 2.8476L137.827 2.09647C137.419 3.10502 136.667 3.54381 136.045 3.54388L136.045 5.54388ZM139.681 2.8476V4.8476H140.068V2.8476V0.847595H139.681V2.8476ZM140.068 2.8476H138.068V19.0214H140.068H142.068V2.8476H140.068ZM140.068 19.0214V17.0214H59.589V19.0214V21.0214H140.068V19.0214ZM59.589 19.0214H61.589V2.8476H59.589H57.589V19.0214H59.589ZM59.589 2.8476V4.8476H59.9767V2.8476V0.847595H59.589V2.8476Z" fill="black" mask="url(#path-6-inside-1_1058_172)"/>
<path d="M86.6071 6.21674V18.347" stroke="black" stroke-width="2"/>
<mask id="path-9-inside-2_1058_172" fill="white">
<path d="M128.572 31.7382C128.049 31.464 127.464 31.3105 126.846 31.3105C125.241 31.3106 123.857 32.3478 123.211 33.8476H122.435C121.79 32.3477 120.404 31.3105 118.799 31.3105C117.194 31.3107 115.809 32.3478 115.163 33.8476H114.388C113.742 32.3477 112.356 31.3105 110.751 31.3105C109.146 31.3106 107.761 32.3478 107.115 33.8476H106.339C105.693 32.3478 104.308 31.3106 102.703 31.3105C101.098 31.3105 99.7131 32.3478 99.0672 33.8476H98.2908C97.6449 32.3478 96.2602 31.3105 94.6551 31.3105C93.05 31.3105 91.6652 32.3478 91.0193 33.8476H90.243C89.5971 32.3478 88.2123 31.3105 86.6072 31.3105C85.0021 31.3105 83.6174 32.3478 82.9715 33.8476H82.1951C81.5492 32.3478 80.1645 31.3105 78.5594 31.3105C76.9543 31.3105 75.5695 32.3478 74.9236 33.8476H74.2703C73.6244 32.3478 72.2397 31.3105 70.6346 31.3105C69.0295 31.3105 67.6447 32.3478 66.9988 33.8476H66.2225C65.5766 32.3478 64.1918 31.3105 62.5867 31.3105C62.0505 31.3105 61.5389 31.4266 61.0711 31.6367V16.956H128.572V31.7382Z"/>
</mask>
<path d="M128.572 31.7382C128.049 31.464 127.464 31.3105 126.846 31.3105C125.241 31.3106 123.857 32.3478 123.211 33.8476H122.435C121.79 32.3477 120.404 31.3105 118.799 31.3105C117.194 31.3107 115.809 32.3478 115.163 33.8476H114.388C113.742 32.3477 112.356 31.3105 110.751 31.3105C109.146 31.3106 107.761 32.3478 107.115 33.8476H106.339C105.693 32.3478 104.308 31.3106 102.703 31.3105C101.098 31.3105 99.7131 32.3478 99.0672 33.8476H98.2908C97.6449 32.3478 96.2602 31.3105 94.6551 31.3105C93.05 31.3105 91.6652 32.3478 91.0193 33.8476H90.243C89.5971 32.3478 88.2123 31.3105 86.6072 31.3105C85.0021 31.3105 83.6174 32.3478 82.9715 33.8476H82.1951C81.5492 32.3478 80.1645 31.3105 78.5594 31.3105C76.9543 31.3105 75.5695 32.3478 74.9236 33.8476H74.2703C73.6244 32.3478 72.2397 31.3105 70.6346 31.3105C69.0295 31.3105 67.6447 32.3478 66.9988 33.8476H66.2225C65.5766 32.3478 64.1918 31.3105 62.5867 31.3105C62.0505 31.3105 61.5389 31.4266 61.0711 31.6367V16.956H128.572V31.7382Z" fill="#D2553C"/>
<path d="M128.572 31.7382L127.643 33.5095L130.572 35.0453V31.7382H128.572ZM126.846 31.3105V29.3105H126.846L126.846 31.3105ZM123.211 33.8476V35.8476H124.527L125.048 34.6386L123.211 33.8476ZM122.435 33.8476L120.598 34.6386L121.119 35.8476H122.435V33.8476ZM118.799 31.3105V29.3105H118.798L118.799 31.3105ZM115.163 33.8476V35.8476H116.479L117 34.6386L115.163 33.8476ZM114.388 33.8476L112.551 34.6385L113.071 35.8476H114.388V33.8476ZM110.751 31.3105V29.3105H110.751L110.751 31.3105ZM107.115 33.8476V35.8476H108.431L108.952 34.6386L107.115 33.8476ZM106.339 33.8476L104.502 34.6386L105.022 35.8476H106.339V33.8476ZM102.703 31.3105L102.703 29.3105H102.703V31.3105ZM99.0672 33.8476V35.8476H100.383L100.904 34.6387L99.0672 33.8476ZM98.2908 33.8476L96.4539 34.6387L96.9746 35.8476H98.2908V33.8476ZM94.6551 31.3105V29.3105H94.655L94.6551 31.3105ZM91.0193 33.8476V35.8476H92.3357L92.8563 34.6386L91.0193 33.8476ZM90.243 33.8476L88.4061 34.6387L88.9267 35.8476H90.243V33.8476ZM86.6072 31.3105V29.3105H86.6072L86.6072 31.3105ZM82.9715 33.8476V35.8476H84.2878L84.8084 34.6386L82.9715 33.8476ZM82.1951 33.8476L80.3582 34.6386L80.8788 35.8476H82.1951V33.8476ZM78.5594 31.3105L78.5594 29.3105H78.5594V31.3105ZM74.9236 33.8476V35.8476H76.2399L76.7606 34.6386L74.9236 33.8476ZM74.2703 33.8476L72.4334 34.6386L72.954 35.8476H74.2703V33.8476ZM70.6346 31.3105L70.6346 29.3105H70.6346V31.3105ZM66.9988 33.8476V35.8476H68.3151L68.8358 34.6386L66.9988 33.8476ZM66.2225 33.8476L64.3856 34.6386L64.9062 35.8476H66.2225V33.8476ZM62.5867 31.3105L62.5868 29.3105H62.5867V31.3105ZM61.0711 31.6367H59.0711V34.7268L61.8902 33.4612L61.0711 31.6367ZM61.0711 16.956V14.956H59.0711V16.956H61.0711ZM128.572 16.956H130.572V14.956H128.572V16.956ZM128.572 31.7382L129.501 29.967C128.704 29.5489 127.801 29.3105 126.846 29.3105V31.3105V33.3105C127.127 33.3105 127.395 33.3792 127.643 33.5095L128.572 31.7382ZM126.846 31.3105L126.846 29.3105C124.329 29.3107 122.288 30.9333 121.374 33.0566L123.211 33.8476L125.048 34.6386C125.425 33.7624 126.154 33.3106 126.847 33.3105L126.846 31.3105ZM123.211 33.8476V31.8476H122.435V33.8476V35.8476H123.211V33.8476ZM122.435 33.8476L124.272 33.0566C123.358 30.9327 121.316 29.3105 118.799 29.3105V31.3105V33.3105C119.492 33.3105 120.221 33.7626 120.598 34.6386L122.435 33.8476ZM118.799 31.3105L118.798 29.3105C116.281 29.3108 114.24 30.9332 113.326 33.0566L115.163 33.8476L117 34.6386C117.377 33.7624 118.106 33.3106 118.799 33.3105L118.799 31.3105ZM115.163 33.8476V31.8476H114.388V33.8476V35.8476H115.163V33.8476ZM114.388 33.8476L116.224 33.0566C115.31 30.9327 113.268 29.3105 110.751 29.3105V31.3105V33.3105C111.444 33.3105 112.173 33.7626 112.551 34.6385L114.388 33.8476ZM110.751 31.3105L110.751 29.3105C108.233 29.3107 106.192 30.9333 105.278 33.0566L107.115 33.8476L108.952 34.6386C109.329 33.7624 110.058 33.3106 110.751 33.3105L110.751 31.3105ZM107.115 33.8476V31.8476H106.339V33.8476V35.8476H107.115V33.8476ZM106.339 33.8476L108.176 33.0566C107.261 30.9333 105.22 29.3107 102.703 29.3105L102.703 31.3105L102.703 33.3105C103.396 33.3105 104.124 33.7623 104.502 34.6386L106.339 33.8476ZM102.703 31.3105V29.3105C100.185 29.3105 98.1446 30.9335 97.2303 33.0565L99.0672 33.8476L100.904 34.6387C101.282 33.7621 102.01 33.3105 102.703 33.3105V31.3105ZM99.0672 33.8476V31.8476H98.2908V33.8476V35.8476H99.0672V33.8476ZM98.2908 33.8476L100.128 33.0565C99.2134 30.9335 97.1727 29.3105 94.6551 29.3105V31.3105V33.3105C95.3477 33.3105 96.0764 33.7621 96.4539 34.6387L98.2908 33.8476ZM94.6551 31.3105L94.655 29.3105C92.1376 29.3106 90.0967 30.9334 89.1824 33.0566L91.0193 33.8476L92.8563 34.6386C93.2337 33.7622 93.9624 33.3105 94.6552 33.3105L94.6551 31.3105ZM91.0193 33.8476V31.8476H90.243V33.8476V35.8476H91.0193V33.8476ZM90.243 33.8476L92.0799 33.0565C91.1656 30.9335 89.1248 29.3105 86.6072 29.3105V31.3105V33.3105C87.2999 33.3105 88.0286 33.7621 88.4061 34.6387L90.243 33.8476ZM86.6072 31.3105L86.6072 29.3105C84.0898 29.3106 82.0489 30.9334 81.1346 33.0566L82.9715 33.8476L84.8084 34.6386C85.1858 33.7622 85.9145 33.3105 86.6073 33.3105L86.6072 31.3105ZM82.9715 33.8476V31.8476H82.1951V33.8476V35.8476H82.9715V33.8476ZM82.1951 33.8476L84.032 33.0566C83.1178 30.9334 81.077 29.3105 78.5594 29.3105L78.5594 31.3105L78.5594 33.3105C79.2521 33.3105 79.9807 33.7621 80.3582 34.6386L82.1951 33.8476ZM78.5594 31.3105V29.3105C76.0418 29.3105 74.001 30.9334 73.0867 33.0566L74.9236 33.8476L76.7606 34.6386C77.138 33.7621 77.8667 33.3105 78.5594 33.3105V31.3105ZM74.9236 33.8476V31.8476H74.2703V33.8476V35.8476H74.9236V33.8476ZM74.2703 33.8476L76.1072 33.0566C75.1929 30.9334 73.1522 29.3105 70.6346 29.3105L70.6346 31.3105L70.6346 33.3105C71.3273 33.3105 72.0559 33.7621 72.4334 34.6386L74.2703 33.8476ZM70.6346 31.3105V29.3105C68.117 29.3105 66.0762 30.9334 65.1619 33.0566L66.9988 33.8476L68.8358 34.6386C69.2132 33.7621 69.9419 33.3105 70.6346 33.3105V31.3105ZM66.9988 33.8476V31.8476H66.2225V33.8476V35.8476H66.9988V33.8476ZM66.2225 33.8476L68.0594 33.0566C67.1451 30.9334 65.1042 29.3106 62.5868 29.3105L62.5867 31.3105L62.5867 33.3105C63.2794 33.3105 64.0081 33.7622 64.3856 34.6386L66.2225 33.8476ZM62.5867 31.3105V29.3105C61.7578 29.3105 60.9678 29.4908 60.252 29.8121L61.0711 31.6367L61.8902 33.4612C62.1101 33.3625 62.3433 33.3105 62.5867 33.3105V31.3105ZM61.0711 31.6367H63.0711V16.956H61.0711H59.0711V31.6367H61.0711ZM61.0711 16.956V18.956H128.572V16.956V14.956H61.0711V16.956ZM128.572 16.956H126.572V31.7382H128.572H130.572V16.956H128.572Z" fill="black" mask="url(#path-9-inside-2_1058_172)"/>
<path d="M101.688 17.8476L101.688 30.8476" stroke="black" stroke-width="2"/>
</g>
<path d="M67.9 4.8476L67.9 31.3476" stroke="black" stroke-width="1.8"/>
<path d="M111 6.8476V30.8476" stroke="black" stroke-width="2"/>
</svg>
