<svg width="136" height="88" viewBox="0 0 136 88" fill="none" xmlns="http://www.w3.org/2000/svg">
    <path d="M107.986 63.0837L91.5414 63.0196L91.7552 8.20492L108.2 8.26905L108.014 55.7751L107.986 63.0837Z" stroke="black" stroke-width="2"/>
    <path d="M107.126 49.3764L101.644 49.355" stroke="black" stroke-width="2" stroke-linecap="round"/>
    <path d="M108.171 15.5773L100.863 15.5488" stroke="black" stroke-width="2" stroke-linecap="round"/>
    <path d="M108.092 35.676L100.784 35.6475" stroke="black" stroke-width="2" stroke-linecap="round"/>
    <path d="M108.014 55.7746L100.705 55.7461" stroke="black" stroke-width="2" stroke-linecap="round"/>
    <path d="M108.064 42.9848L102.582 42.9634" stroke="black" stroke-width="2" stroke-linecap="round"/>
    <path d="M108.15 21.059L102.668 21.0376" stroke="black" stroke-width="2" stroke-linecap="round"/>
    <path d="M108.121 28.3676L102.64 28.3462" stroke="black" stroke-width="2" stroke-linecap="round"/>
    <path d="M1.5 48.706C5.5984 41.9636 19.9428 42.7128 21.992 48.706C23.6894 53.6703 22.5748 24.1974 22.1421 13.9306C22.052 11.7939 20.838 9.85518 18.8833 8.98741C13.6017 6.64264 9.75379 6.33956 4.46509 8.8773C2.57365 9.78489 1.5 11.7809 1.5 13.8788V48.706ZM1.5 48.706C1.5 53.9499 4.5738 57.6957 11.746 57.6957C18.9182 57.6957 83.468 57.6957 83.468 57.6957V14.2452H23.0166" stroke="black" stroke-width="2"/>
    <mask id="path-10-inside-1_760_142" fill="white">
        <path d="M39.9541 64.2731C39.9541 58.2344 42.353 52.4431 46.623 48.1731C50.893 43.9031 56.6843 41.5042 62.723 41.5042C68.7617 41.5042 74.5531 43.9031 78.8231 48.1731C83.0931 52.4431 85.4919 58.2344 85.4919 64.2731L62.723 64.2731L39.9541 64.2731Z"/>
    </mask>
    <path d="M39.9541 64.2731C39.9541 58.2344 42.353 52.4431 46.623 48.1731C50.893 43.9031 56.6843 41.5042 62.723 41.5042C68.7617 41.5042 74.5531 43.9031 78.8231 48.1731C83.0931 52.4431 85.4919 58.2344 85.4919 64.2731L62.723 64.2731L39.9541 64.2731Z" fill="#E9F4FF" stroke="black" stroke-width="4" mask="url(#path-10-inside-1_760_142)"/>
    <path d="M74.3605 46.564V63.2611" stroke="black" stroke-width="2"/>
    <path d="M72.299 25.8071C72.1704 27.226 71.7941 28.9769 71.2297 30.6792C70.5616 32.6941 69.6802 34.4903 68.7629 35.5503L68.5793 35.7524C66.3926 38.0301 64.0386 39.4926 61.2052 39.4927L60.9406 39.4878C58.3998 39.4055 56.245 38.1389 54.2433 36.1694L53.8312 35.7524C52.8485 34.7288 51.8934 32.8282 51.1808 30.6792C50.6164 28.9768 50.2401 27.226 50.1115 25.8071H72.299Z" fill="#E9F4FF" stroke="black" stroke-width="2"/>
    <mask id="path-13-inside-2_760_142" fill="white">
        <path d="M76.3843 26.3253C76.3843 24.3319 75.9917 22.358 75.2289 20.5164C74.4661 18.6748 73.348 17.0014 71.9384 15.5919C70.5289 14.1824 68.8556 13.0643 67.0139 12.3014C65.1723 11.5386 63.1985 11.146 61.2051 11.146C59.2117 11.146 57.2379 11.5386 55.3962 12.3014C53.5546 13.0643 51.8813 14.1824 50.4717 15.5919C49.0622 17.0014 47.9441 18.6748 47.1813 20.5164C46.4185 22.358 46.0258 24.3319 46.0258 26.3253L61.2051 26.3253H76.3843Z"/>
    </mask>
    <path d="M76.3843 26.3253C76.3843 24.3319 75.9917 22.358 75.2289 20.5164C74.4661 18.6748 73.348 17.0014 71.9384 15.5919C70.5289 14.1824 68.8556 13.0643 67.0139 12.3014C65.1723 11.5386 63.1985 11.146 61.2051 11.146C59.2117 11.146 57.2379 11.5386 55.3962 12.3014C53.5546 13.0643 51.8813 14.1824 50.4717 15.5919C49.0622 17.0014 47.9441 18.6748 47.1813 20.5164C46.4185 22.358 46.0258 24.3319 46.0258 26.3253L61.2051 26.3253H76.3843Z" fill="#D2553C" stroke="black" stroke-width="4" mask="url(#path-13-inside-2_760_142)"/>
    <path d="M69.3007 15.1938L69.3007 19.2416" stroke="black" stroke-width="2"/>
    <path d="M61.2051 12.1577L61.2051 16.2055" stroke="black" stroke-width="2"/>
    <path d="M53.1095 15.1938L53.1095 19.2416" stroke="black" stroke-width="2"/>
    <path d="M50.0736 46.564V62.7552" stroke="black" stroke-width="2"/>
</svg>
