<svg width="123" height="101" viewBox="0 0 123 101" fill="none" xmlns="http://www.w3.org/2000/svg">
<path d="M68 35L41.3259 50.4498" stroke="black" stroke-width="2"/>
<path d="M10.9085 52.6099V82.3048H53.9661V54.0947M53.9661 54.0947L56.9356 57.0642L61.3898 52.6099L31.6949 22.915L2 52.6099L6.45423 57.0642L31.6949 31.8235L53.9661 54.0947Z" stroke="black" stroke-width="2"/>
<path d="M45.0574 36.2777V30.3387H53.9659V45.1862" stroke="black" stroke-width="2"/>
<path d="M24.2712 82.3049V60.0337H40.6034V82.3049" stroke="black" stroke-width="2"/>
<rect x="67" y="15" width="38" height="28.0111" fill="#D2553C" stroke="black" stroke-width="2"/>
<path d="M66 28.5854H104.378" stroke="black" stroke-width="2"/>
<path d="M77.1537 15.716V28.1566" stroke="black" stroke-width="2"/>
<path d="M96.8869 15.716V27.7276" stroke="black" stroke-width="2"/>
<path d="M84 28.5854V43.171" stroke="black" stroke-width="2"/>
<rect x="91" y="15" width="19" height="28.171" fill="white"/>
<path d="M92.5 20.5C93.2093 21.1462 95.7937 23.3023 96.067 24.3044C96.1567 24.6333 96.2638 24.9605 96.3591 25.2887C96.5036 25.7864 96.8081 26.3162 97.2799 26.5652C97.9891 26.9394 99.1044 27.8257 99.274 28.6736" stroke="#D2553C" stroke-width="2" stroke-linecap="round"/>
<path d="M92.5 34.5C93.2093 35.1462 95.7937 37.3023 96.067 38.3044C96.1567 38.6333 96.2638 38.9605 96.3591 39.2887C96.5036 39.7864 96.8081 40.3162 97.2799 40.5652C97.9891 40.9394 99.1044 41.8257 99.274 42.6736" stroke="#D2553C" stroke-width="2" stroke-linecap="round"/>
<path d="M93 15C94.1413 15.8633 97.1097 18.0329 97.5864 19.4364C97.6965 19.7607 99.1666 20.8039 99.5 21C100.778 21.7515 100.933 21.5734 102.248 22.2307C103.168 22.6907 103.881 24.0917 104.127 25.0567C104.423 26.213 104.858 26.8615 105.639 27.6731C105.872 27.9151 106.864 28.7045 107 28.9771" stroke="#D2553C" stroke-width="2" stroke-linecap="round"/>
<path d="M93 29C94.1413 29.8633 97.1097 32.0329 97.5864 33.4364C97.6965 33.7607 99.1666 34.8039 99.5 35C100.778 35.7515 100.933 35.5734 102.248 36.2307C103.168 36.6907 103.881 38.0917 104.127 39.0567C104.423 40.213 104.858 40.8615 105.639 41.6731C105.872 41.9151 106.864 42.7045 107 42.9771" stroke="#D2553C" stroke-width="2" stroke-linecap="round"/>
<path d="M101 15C102.166 15.2498 103.5 16.5 105 19C106.5 21.5 109.729 22 110.5 22" stroke="#D2553C" stroke-width="2" stroke-linecap="round"/>
<path d="M101 29C102.166 29.2498 103.5 30.5 105 33C106.5 35.5 109.729 36 110.5 36" stroke="#D2553C" stroke-width="2" stroke-linecap="round"/>
<rect x="92" y="15" width="19" height="14" stroke="black" stroke-width="2"/>
<rect x="92" y="29" width="19" height="14" stroke="black" stroke-width="2"/>
</svg>
