<svg width="112" height="70" viewBox="0 0 112 70" fill="none" xmlns="http://www.w3.org/2000/svg">
    <path d="M68 21L41.3259 36.4498" stroke="black" stroke-width="2"/>
    <path d="M10.9085 38.6099V68.3048H53.9661V40.0947M53.9661 40.0947L56.9356 43.0642L61.3898 38.6099L31.6949 8.91504L2 38.6099L6.45423 43.0642L31.6949 17.8235L53.9661 40.0947Z" stroke="black" stroke-width="2"/>
    <path d="M45.0574 22.2777V16.3387H53.9659V31.1862" stroke="black" stroke-width="2"/>
    <path d="M24.2712 68.3049V46.0337H40.6034V68.3049" stroke="black" stroke-width="2"/>
    <rect x="67" y="1" width="38" height="28.0111" fill="#D2553C" stroke="black" stroke-width="2"/>
    <path d="M66 14.5854H104.378" stroke="black" stroke-width="2"/>
    <path d="M77.1537 1.716V14.1566" stroke="black" stroke-width="2"/>
    <path d="M96.8869 1.716V13.7276" stroke="black" stroke-width="2"/>
    <path d="M84 14.5854V29.171" stroke="black" stroke-width="2"/>
    <rect x="91" y="1" width="19" height="28.171" fill="white"/>
    <path d="M92.5 6.5C93.2093 7.14618 95.7937 9.30234 96.067 10.3044C96.1567 10.6333 96.2638 10.9605 96.3591 11.2887C96.5036 11.7864 96.8081 12.3162 97.2799 12.5652C97.9891 12.9394 99.1044 13.8257 99.274 14.6736" stroke="#D2553C" stroke-width="2" stroke-linecap="round"/>
    <path d="M92.5 20.5C93.2093 21.1462 95.7937 23.3023 96.067 24.3044C96.1567 24.6333 96.2638 24.9605 96.3591 25.2887C96.5036 25.7864 96.8081 26.3162 97.2799 26.5652C97.9891 26.9394 99.1044 27.8257 99.274 28.6736" stroke="#D2553C" stroke-width="2" stroke-linecap="round"/>
    <path d="M93 1C94.1413 1.86334 97.1097 4.03292 97.5864 5.43642C97.6965 5.76066 99.1666 6.80391 99.5 7C100.778 7.75154 100.933 7.57342 102.248 8.23067C103.168 8.69074 103.881 10.0917 104.127 11.0567C104.423 12.213 104.858 12.8615 105.639 13.6731C105.872 13.9151 106.864 14.7045 107 14.9771" stroke="#D2553C" stroke-width="2" stroke-linecap="round"/>
    <path d="M93 15C94.1413 15.8633 97.1097 18.0329 97.5864 19.4364C97.6965 19.7607 99.1666 20.8039 99.5 21C100.778 21.7515 100.933 21.5734 102.248 22.2307C103.168 22.6907 103.881 24.0917 104.127 25.0567C104.423 26.213 104.858 26.8615 105.639 27.6731C105.872 27.9151 106.864 28.7045 107 28.9771" stroke="#D2553C" stroke-width="2" stroke-linecap="round"/>
    <path d="M101 1C102.166 1.24982 103.5 2.5 105 5C106.5 7.5 109.729 8 110.5 8" stroke="#D2553C" stroke-width="2" stroke-linecap="round"/>
    <path d="M101 15C102.166 15.2498 103.5 16.5 105 19C106.5 21.5 109.729 22 110.5 22" stroke="#D2553C" stroke-width="2" stroke-linecap="round"/>
</svg>
