<svg width="114" height="72" viewBox="0 0 114 72" fill="none" xmlns="http://www.w3.org/2000/svg">
<path d="M68 21.8476L41.3256 38.2974" stroke="black" stroke-width="2"/>
<path d="M10.9085 40.4575V70.1524H53.9661V41.9423M53.9661 41.9423L56.9356 44.9118L61.3898 40.4575L31.6949 10.7626L2 40.4575L6.45423 44.9118L31.6949 19.6711L53.9661 41.9423Z" stroke="black" stroke-width="2"/>
<path d="M45.0575 24.1253V18.1863H53.966V33.0338" stroke="black" stroke-width="2"/>
<path d="M24.2711 70.1524V47.8812H40.6033V70.1524" stroke="black" stroke-width="2"/>
<rect x="68" y="1.8476" width="44.6216" height="32.9792" fill="#D2553C" stroke="black" stroke-width="2"/>
<path d="M67 12.8476H111.732" stroke="black" stroke-width="2"/>
<path d="M68 23.8476H112.732" stroke="black" stroke-width="2"/>
<path d="M84 2.8476V13.8476" stroke="black" stroke-width="2"/>
<path d="M103 1.8476V12.8476" stroke="black" stroke-width="2"/>
<path d="M76 13.8476V24.8476" stroke="black" stroke-width="2"/>
<path d="M95 12.8476V23.8476" stroke="black" stroke-width="2"/>
<path d="M107 23.8476V34.8476" stroke="black" stroke-width="2"/>
<path d="M89 23.8476V34.8476" stroke="black" stroke-width="2"/>
<path d="M72 23.8476V34.8476" stroke="black" stroke-width="2"/>
</svg>
