<svg width="110" height="76" viewBox="0 0 110 76" fill="none" xmlns="http://www.w3.org/2000/svg">
    <path d="M12.551 74.6638H33.1796L30.9694 68.3926H14.7612L12.551 74.6638Z" stroke="black" stroke-width="2"/>
    <path d="M18.4449 68.3927V21.0283" stroke="black" stroke-width="2"/>
    <path d="M28.0225 68.3927V21.0283" stroke="black" stroke-width="2"/>
    <path d="M14.7613 20.3417H30.9695L28.7593 9.68066H16.9715L14.7613 20.3417Z" stroke="black" stroke-width="2"/>
    <path d="M16.2347 12.1895H2.23668V17.2064H14.7612" stroke="black" stroke-width="2"/>
    <path d="M28.5203 12.5283H107.232V18.0969H87.987M30.5 18.0969H87.987M87.987 18.0969V28.1554V33.5283" stroke="black" stroke-width="2"/>
    <path d="M5.92047 12.1893L22.8654 1.52832L61.9124 12.1893" stroke="black" stroke-width="2"/>
    <path d="M22.8653 1.52832V9.68086" stroke="black" stroke-width="2"/>
    <path d="M19.1817 52.0879H27.2858" stroke="black" stroke-width="2"/>
    <path d="M19.1817 34.5283H27.2858" stroke="black" stroke-width="2"/>
    <path d="M6.65715 17.8335V24.1047M6.65715 24.1047H11.8143V29.7488H1.5V24.1047H6.65715Z" stroke="black" stroke-width="2"/>
    <path d="M88.5 33.5283L67.5 54.0283L70.5 56.7986L88.5 40.177L106 56.7986L108.5 54.0283L103.5 48.4878V38.5148H97V41.8391L88.5 33.5283Z" fill="#D2553C"/>
    <path d="M73.65 54.0283V74.5283H103.375V55.0533M103.375 55.0533L105.425 57.1033L108.5 54.0283L88 33.5283L67.5 54.0283L70.575 57.1033L88 39.6783L103.375 55.0533Z" stroke="black" stroke-width="2"/>
    <path d="M97.2251 42.7533V38.6533H103.375V48.9033" stroke="black" stroke-width="2"/>
    <path d="M82.875 74.5283V59.1533H94.15V74.5283" stroke="black" stroke-width="2"/>
</svg>
