<svg width="123" height="101" viewBox="0 0 123 101" fill="none" xmlns="http://www.w3.org/2000/svg">
<path d="M88 46L67 66.5L70 69.2703L88 52.6486L105.5 69.2703L108 66.5L103 60.9595V50.9865H96.5V54.3108L88 46Z" fill="#D2553C"/>
<path d="M73.15 66.5V87H102.875V67.525M102.875 67.525L104.925 69.575L108 66.5L87.5 46L67 66.5L70.075 69.575L87.5 52.15L102.875 67.525Z" stroke="black" stroke-width="2"/>
<path d="M96.7251 55.225V51.125H102.875V61.375" stroke="black" stroke-width="2"/>
<path d="M82.375 87V71.625H93.65V87" stroke="black" stroke-width="2"/>
<path d="M12.051 87.1357H32.6796L30.4694 80.8645H14.2612L12.051 87.1357Z" stroke="black" stroke-width="2"/>
<path d="M17.9449 80.8644V33.5" stroke="black" stroke-width="2"/>
<path d="M27.5225 80.8644V33.5" stroke="black" stroke-width="2"/>
<path d="M14.2614 32.8136H30.4695L28.2593 22.1526H16.4716L14.2614 32.8136Z" stroke="black" stroke-width="2"/>
<path d="M15.7347 24.6611H1.73669V29.6781H14.2612" stroke="black" stroke-width="2"/>
<path d="M28.0203 25H106.732V30.5686H87.487M30 30.5686H87.487M87.487 30.5686V40.627V46" stroke="black" stroke-width="2"/>
<path d="M5.42041 24.661L22.3653 14L61.4124 24.661" stroke="black" stroke-width="2"/>
<path d="M22.3654 14V22.1525" stroke="black" stroke-width="2"/>
<path d="M18.6816 64.5593H26.7857" stroke="black" stroke-width="2"/>
<path d="M18.6816 47H26.7857" stroke="black" stroke-width="2"/>
<path d="M6.15715 30.3052V36.5764M6.15715 36.5764H11.3143V42.2204H1V36.5764H6.15715Z" stroke="black" stroke-width="2"/>
</svg>
