<svg width="112" height="67" viewBox="0 0 112 67" fill="none" xmlns="http://www.w3.org/2000/svg">
    <path d="M67.5 18.5283L40.8259 33.9781" stroke="black" stroke-width="2"/>
    <path d="M10.4085 36.1383V65.8332H53.4661V37.623M53.4661 37.623L56.4356 40.5925L60.8898 36.1383L31.1949 6.44336L1.5 36.1383L5.95423 40.5925L31.1949 15.3518L53.4661 37.623Z" stroke="black" stroke-width="2"/>
    <path d="M44.5574 19.8062V13.8672H53.4659V28.7146" stroke="black" stroke-width="2"/>
    <path d="M23.7712 65.8332V43.562H40.1034V65.8332" stroke="black" stroke-width="2"/>
    <mask id="mask0_760_142" style="mask-type:alpha" maskUnits="userSpaceOnUse" x="66" y="0" width="46" height="37">
        <rect x="66.5" y="0.52832" width="45" height="36" fill="#D2553C"/>
    </mask>
    <g mask="url(#mask0_760_142)">
        <mask id="path-6-inside-1_760_142" fill="white">
            <path d="M59.4767 2.52832C60.1225 4.12204 61.5082 5.22363 63.1134 5.22363C64.7184 5.22351 66.1033 4.12186 66.7491 2.52832H67.5255C68.1714 4.12199 69.5561 5.22461 71.1613 5.22461C72.7664 5.22461 74.1511 4.12199 74.797 2.52832H75.5734C76.2192 4.12195 77.604 5.22461 79.2091 5.22461C80.8142 5.22452 82.199 4.12196 82.8448 2.52832H83.6212C84.2671 4.12198 85.6518 5.22458 87.257 5.22461C88.8621 5.22461 90.2468 4.12198 90.8927 2.52832H91.6691C92.3149 4.12195 93.6997 5.22461 95.3048 5.22461C96.9099 5.22452 98.2947 4.12196 98.9406 2.52832H99.7169C100.363 4.12198 101.748 5.22458 103.353 5.22461C104.958 5.22461 106.343 4.12198 106.988 2.52832H107.765C108.411 4.12209 109.796 5.22461 111.401 5.22461C113.007 5.22441 114.391 4.12193 115.037 2.52832H115.813C116.458 4.12194 117.843 5.22447 119.448 5.22461C121.054 5.22461 122.439 4.12211 123.085 2.52832H123.861C124.507 4.12195 125.892 5.22461 127.497 5.22461C129.102 5.22452 130.487 4.12196 131.133 2.52832H131.908C132.554 4.12209 133.94 5.22461 135.545 5.22461C137.15 5.22441 138.535 4.12193 139.181 2.52832H139.568V18.7021H59.089V2.52832H59.4767Z"/>
        </mask>
        <path d="M59.4767 2.52832C60.1225 4.12204 61.5082 5.22363 63.1134 5.22363C64.7184 5.22351 66.1033 4.12186 66.7491 2.52832H67.5255C68.1714 4.12199 69.5561 5.22461 71.1613 5.22461C72.7664 5.22461 74.1511 4.12199 74.797 2.52832H75.5734C76.2192 4.12195 77.604 5.22461 79.2091 5.22461C80.8142 5.22452 82.199 4.12196 82.8448 2.52832H83.6212C84.2671 4.12198 85.6518 5.22458 87.257 5.22461C88.8621 5.22461 90.2468 4.12198 90.8927 2.52832H91.6691C92.3149 4.12195 93.6997 5.22461 95.3048 5.22461C96.9099 5.22452 98.2947 4.12196 98.9406 2.52832H99.7169C100.363 4.12198 101.748 5.22458 103.353 5.22461C104.958 5.22461 106.343 4.12198 106.988 2.52832H107.765C108.411 4.12209 109.796 5.22461 111.401 5.22461C113.007 5.22441 114.391 4.12193 115.037 2.52832H115.813C116.458 4.12194 117.843 5.22447 119.448 5.22461C121.054 5.22461 122.439 4.12211 123.085 2.52832H123.861C124.507 4.12195 125.892 5.22461 127.497 5.22461C129.102 5.22452 130.487 4.12196 131.133 2.52832H131.908C132.554 4.12209 133.94 5.22461 135.545 5.22461C137.15 5.22441 138.535 4.12193 139.181 2.52832H139.568V18.7021H59.089V2.52832H59.4767Z" fill="#D2553C"/>
        <path d="M59.4767 2.52832L61.3303 1.77717L60.8242 0.52832H59.4767V2.52832ZM63.1134 5.22363V7.22363H63.1136L63.1134 5.22363ZM66.7491 2.52832V0.52832H65.4017L64.8956 1.77712L66.7491 2.52832ZM67.5255 2.52832L69.3791 1.77714L68.873 0.52832H67.5255V2.52832ZM71.1613 5.22461V7.22461H71.1613L71.1613 5.22461ZM74.797 2.52832V0.52832H73.4495L72.9434 1.77714L74.797 2.52832ZM75.5734 2.52832L77.4269 1.77711L76.9208 0.52832H75.5734V2.52832ZM79.2091 5.22461V7.22461H79.2092L79.2091 5.22461ZM82.8448 2.52832V0.52832H81.4974L80.9913 1.77716L82.8448 2.52832ZM83.6212 2.52832L85.4748 1.77715L84.9687 0.52832H83.6212V2.52832ZM87.257 5.22461L87.2569 7.22461H87.257V5.22461ZM90.8927 2.52832V0.52832H89.5452L89.0391 1.77713L90.8927 2.52832ZM91.6691 2.52832L93.5226 1.77711L93.0165 0.52832H91.6691V2.52832ZM95.3048 5.22461V7.22461H95.3049L95.3048 5.22461ZM98.9406 2.52832V0.52832H97.5931L97.087 1.77716L98.9406 2.52832ZM99.7169 2.52832L101.57 1.77715L101.064 0.52832H99.7169V2.52832ZM103.353 5.22461L103.353 7.22461H103.353V5.22461ZM106.988 2.52832V0.52832H105.641L105.135 1.77713L106.988 2.52832ZM107.765 2.52832L109.618 1.77721L109.112 0.52832H107.765V2.52832ZM111.401 5.22461V7.22461H111.402L111.401 5.22461ZM115.037 2.52832V0.52832H113.69L113.184 1.7772L115.037 2.52832ZM115.813 2.52832L117.666 1.77718L117.16 0.52832H115.813V2.52832ZM119.448 5.22461L119.448 7.22461H119.448V5.22461ZM123.085 2.52832V0.52832H121.738L121.231 1.77723L123.085 2.52832ZM123.861 2.52832L125.715 1.77711L125.209 0.52832H123.861V2.52832ZM127.497 5.22461V7.22461H127.497L127.497 5.22461ZM131.133 2.52832V0.52832H129.785L129.279 1.77716L131.133 2.52832ZM131.908 2.52832L133.762 1.77721L133.256 0.52832H131.908V2.52832ZM135.545 5.22461V7.22461H135.545L135.545 5.22461ZM139.181 2.52832V0.52832H137.833L137.327 1.7772L139.181 2.52832ZM139.568 2.52832H141.568V0.52832H139.568V2.52832ZM139.568 18.7021V20.7021H141.568V18.7021H139.568ZM59.089 18.7021H57.089V20.7021H59.089V18.7021ZM59.089 2.52832V0.52832H57.089V2.52832H59.089ZM59.4767 2.52832L57.6231 3.27947C58.5065 5.45938 60.5258 7.22363 63.1134 7.22363V5.22363V3.22363C62.4906 3.22363 61.7386 2.78469 61.3303 1.77717L59.4767 2.52832ZM63.1134 5.22363L63.1136 7.22363C65.7014 7.22343 67.7195 5.4587 68.6027 3.27953L66.7491 2.52832L64.8956 1.77712C64.4871 2.78503 63.7355 3.22358 63.1132 3.22363L63.1134 5.22363ZM66.7491 2.52832V4.52832H67.5255V2.52832V0.52832H66.7491V2.52832ZM67.5255 2.52832L65.6719 3.2795C66.5548 5.4579 68.5724 7.22461 71.1613 7.22461V5.22461V3.22461C70.5398 3.22461 69.788 2.78607 69.3791 1.77714L67.5255 2.52832ZM71.1613 5.22461L71.1613 7.22461C73.7501 7.22461 75.7677 5.45791 76.6506 3.2795L74.797 2.52832L72.9434 1.77714C72.5345 2.78607 71.7827 3.22461 71.1613 3.22461L71.1613 5.22461ZM74.797 2.52832V4.52832H75.5734V2.52832V0.52832H74.797V2.52832ZM75.5734 2.52832L73.7198 3.27953C74.6026 5.45785 76.6202 7.22461 79.2091 7.22461V5.22461V3.22461C78.5877 3.22461 77.8358 2.78606 77.4269 1.77711L75.5734 2.52832ZM79.2091 5.22461L79.2092 7.22461C81.7979 7.22447 83.8156 5.45799 84.6984 3.27948L82.8448 2.52832L80.9913 1.77716C80.5825 2.78593 79.8306 3.22458 79.209 3.22461L79.2091 5.22461ZM82.8448 2.52832V4.52832H83.6212V2.52832V0.52832H82.8448V2.52832ZM83.6212 2.52832L81.7676 3.27949C82.6505 5.45793 84.6681 7.22457 87.2569 7.22461L87.257 5.22461L87.257 3.22461C86.6355 3.2246 85.8836 2.78603 85.4748 1.77715L83.6212 2.52832ZM87.257 5.22461V7.22461C89.8458 7.22461 91.8634 5.45789 92.7463 3.27951L90.8927 2.52832L89.0391 1.77713C88.6302 2.78607 87.8784 3.22461 87.257 3.22461V5.22461ZM90.8927 2.52832V4.52832H91.6691V2.52832V0.52832H90.8927V2.52832ZM91.6691 2.52832L89.8155 3.27953C90.6983 5.45785 92.7159 7.22461 95.3048 7.22461V5.22461V3.22461C94.6834 3.22461 93.9315 2.78606 93.5226 1.77711L91.6691 2.52832ZM95.3048 5.22461L95.3049 7.22461C97.8936 7.22447 99.9113 5.45799 100.794 3.27948L98.9406 2.52832L97.087 1.77716C96.6782 2.78593 95.9263 3.22458 95.3047 3.22461L95.3048 5.22461ZM98.9406 2.52832V4.52832H99.7169V2.52832V0.52832H98.9406V2.52832ZM99.7169 2.52832L97.8633 3.27949C98.7462 5.45793 100.764 7.22457 103.353 7.22461L103.353 5.22461L103.353 3.22461C102.731 3.2246 101.979 2.78603 101.57 1.77715L99.7169 2.52832ZM103.353 5.22461V7.22461C105.942 7.22461 107.959 5.45789 108.842 3.27951L106.988 2.52832L105.135 1.77713C104.726 2.78607 103.974 3.22461 103.353 3.22461V5.22461ZM106.988 2.52832V4.52832H107.765V2.52832V0.52832H106.988V2.52832ZM107.765 2.52832L105.911 3.27943C106.794 5.45867 108.813 7.22461 111.401 7.22461V5.22461V3.22461C110.779 3.22461 110.027 2.78551 109.618 1.77721L107.765 2.52832ZM111.401 5.22461L111.402 7.22461C113.99 7.22429 116.008 5.45811 116.891 3.27944L115.037 2.52832L113.184 1.7772C112.775 2.78575 112.023 3.22453 111.401 3.22461L111.401 5.22461ZM115.037 2.52832V4.52832H115.813V2.52832V0.52832H115.037V2.52832ZM115.813 2.52832L113.959 3.27946C114.842 5.45805 116.86 7.22439 119.448 7.22461L119.448 5.22461L119.449 3.22461C118.827 3.22456 118.075 2.78584 117.666 1.77718L115.813 2.52832ZM119.448 5.22461V7.22461C122.037 7.22461 124.056 5.4587 124.939 3.27941L123.085 2.52832L121.231 1.77723C120.823 2.78552 120.071 3.22461 119.448 3.22461V5.22461ZM123.085 2.52832V4.52832H123.861V2.52832V0.52832H123.085V2.52832ZM123.861 2.52832L122.008 3.27953C122.891 5.45785 124.908 7.22461 127.497 7.22461V5.22461V3.22461C126.876 3.22461 126.124 2.78606 125.715 1.77711L123.861 2.52832ZM127.497 5.22461L127.497 7.22461C130.086 7.22447 132.104 5.45799 132.987 3.27948L131.133 2.52832L129.279 1.77716C128.871 2.78593 128.119 3.22458 127.497 3.22461L127.497 5.22461ZM131.133 2.52832V4.52832H131.908V2.52832V0.52832H131.133V2.52832ZM131.908 2.52832L130.055 3.27943C130.938 5.45867 132.957 7.22461 135.545 7.22461V5.22461V3.22461C134.923 3.22461 134.171 2.78551 133.762 1.77721L131.908 2.52832ZM135.545 5.22461L135.545 7.22461C138.134 7.22429 140.152 5.45811 141.034 3.27944L139.181 2.52832L137.327 1.7772C136.919 2.78575 136.167 3.22453 135.545 3.22461L135.545 5.22461ZM139.181 2.52832V4.52832H139.568V2.52832V0.52832H139.181V2.52832ZM139.568 2.52832H137.568V18.7021H139.568H141.568V2.52832H139.568ZM139.568 18.7021V16.7021H59.089V18.7021V20.7021H139.568V18.7021ZM59.089 18.7021H61.089V2.52832H59.089H57.089V18.7021H59.089ZM59.089 2.52832V4.52832H59.4767V2.52832V0.52832H59.089V2.52832Z" fill="black" mask="url(#path-6-inside-1_760_142)"/>
        <path d="M86.1071 5.89746V18.0277" stroke="black" stroke-width="2"/>
        <mask id="path-9-inside-2_760_142" fill="white">
            <path d="M128.072 31.4189C127.549 31.1448 126.964 30.9912 126.346 30.9912C124.741 30.9914 123.357 32.0285 122.711 33.5283H121.935C121.29 32.0284 119.904 30.9912 118.299 30.9912C116.694 30.9914 115.309 32.0286 114.663 33.5283H113.888C113.242 32.0284 111.856 30.9912 110.251 30.9912C108.646 30.9914 107.261 32.0285 106.615 33.5283H105.839C105.193 32.0285 103.808 30.9913 102.203 30.9912C100.598 30.9912 99.2131 32.0285 98.5672 33.5283H97.7908C97.1449 32.0285 95.7602 30.9912 94.1551 30.9912C92.55 30.9913 91.1652 32.0285 90.5193 33.5283H89.743C89.0971 32.0285 87.7123 30.9912 86.1072 30.9912C84.5021 30.9913 83.1174 32.0285 82.4715 33.5283H81.6951C81.0492 32.0285 79.6645 30.9912 78.0594 30.9912C76.4543 30.9912 75.0695 32.0285 74.4236 33.5283H73.7703C73.1244 32.0285 71.7397 30.9912 70.1346 30.9912C68.5295 30.9912 67.1447 32.0285 66.4988 33.5283H65.7225C65.0766 32.0285 63.6918 30.9913 62.0867 30.9912C61.5508 30.9912 61.0397 31.1076 60.5721 31.3174V16.6367H128.072V31.4189Z"/>
        </mask>
        <path d="M128.072 31.4189C127.549 31.1448 126.964 30.9912 126.346 30.9912C124.741 30.9914 123.357 32.0285 122.711 33.5283H121.935C121.29 32.0284 119.904 30.9912 118.299 30.9912C116.694 30.9914 115.309 32.0286 114.663 33.5283H113.888C113.242 32.0284 111.856 30.9912 110.251 30.9912C108.646 30.9914 107.261 32.0285 106.615 33.5283H105.839C105.193 32.0285 103.808 30.9913 102.203 30.9912C100.598 30.9912 99.2131 32.0285 98.5672 33.5283H97.7908C97.1449 32.0285 95.7602 30.9912 94.1551 30.9912C92.55 30.9913 91.1652 32.0285 90.5193 33.5283H89.743C89.0971 32.0285 87.7123 30.9912 86.1072 30.9912C84.5021 30.9913 83.1174 32.0285 82.4715 33.5283H81.6951C81.0492 32.0285 79.6645 30.9912 78.0594 30.9912C76.4543 30.9912 75.0695 32.0285 74.4236 33.5283H73.7703C73.1244 32.0285 71.7397 30.9912 70.1346 30.9912C68.5295 30.9912 67.1447 32.0285 66.4988 33.5283H65.7225C65.0766 32.0285 63.6918 30.9913 62.0867 30.9912C61.5508 30.9912 61.0397 31.1076 60.5721 31.3174V16.6367H128.072V31.4189Z" fill="#D2553C"/>
        <path d="M128.072 31.4189L127.143 33.1902L130.072 34.7261V31.4189H128.072ZM126.346 30.9912V28.9912H126.346L126.346 30.9912ZM122.711 33.5283V35.5283H124.027L124.548 34.3193L122.711 33.5283ZM121.935 33.5283L120.098 34.3193L120.619 35.5283H121.935V33.5283ZM118.299 30.9912V28.9912H118.298L118.299 30.9912ZM114.663 33.5283V35.5283H115.979L116.5 34.3193L114.663 33.5283ZM113.888 33.5283L112.051 34.3193L112.571 35.5283H113.888V33.5283ZM110.251 30.9912V28.9912H110.251L110.251 30.9912ZM106.615 33.5283V35.5283H107.931L108.452 34.3193L106.615 33.5283ZM105.839 33.5283L104.002 34.3193L104.522 35.5283H105.839V33.5283ZM102.203 30.9912L102.203 28.9912H102.203V30.9912ZM98.5672 33.5283V35.5283H99.8835L100.404 34.3194L98.5672 33.5283ZM97.7908 33.5283L95.9539 34.3194L96.4746 35.5283H97.7908V33.5283ZM94.1551 30.9912V28.9912H94.155L94.1551 30.9912ZM90.5193 33.5283V35.5283H91.8357L92.3563 34.3193L90.5193 33.5283ZM89.743 33.5283L87.9061 34.3194L88.4267 35.5283H89.743V33.5283ZM86.1072 30.9912V28.9912H86.1072L86.1072 30.9912ZM82.4715 33.5283V35.5283H83.7878L84.3084 34.3193L82.4715 33.5283ZM81.6951 33.5283L79.8582 34.3194L80.3788 35.5283H81.6951V33.5283ZM78.0594 30.9912L78.0594 28.9912H78.0594V30.9912ZM74.4236 33.5283V35.5283H75.7399L76.2606 34.3194L74.4236 33.5283ZM73.7703 33.5283L71.9334 34.3194L72.454 35.5283H73.7703V33.5283ZM70.1346 30.9912L70.1346 28.9912H70.1346V30.9912ZM66.4988 33.5283V35.5283H67.8151L68.3358 34.3194L66.4988 33.5283ZM65.7225 33.5283L63.8856 34.3193L64.4062 35.5283H65.7225V33.5283ZM62.0867 30.9912L62.0868 28.9912H62.0867V30.9912ZM60.5721 31.3174H58.5721V34.4068L61.3908 33.1421L60.5721 31.3174ZM60.5721 16.6367V14.6367H58.5721V16.6367H60.5721ZM128.072 16.6367H130.072V14.6367H128.072V16.6367ZM128.072 31.4189L129.001 29.6477C128.204 29.2296 127.301 28.9912 126.346 28.9912V30.9912V32.9912C126.627 32.9912 126.895 33.0599 127.143 33.1902L128.072 31.4189ZM126.346 30.9912L126.346 28.9912C123.829 28.9915 121.788 30.614 120.874 32.7373L122.711 33.5283L124.548 34.3193C124.925 33.4431 125.654 32.9913 126.347 32.9912L126.346 30.9912ZM122.711 33.5283V31.5283H121.935V33.5283V35.5283H122.711V33.5283ZM121.935 33.5283L123.772 32.7374C122.858 30.6134 120.816 28.9912 118.299 28.9912V30.9912V32.9912C118.992 32.9912 119.721 33.4434 120.098 34.3193L121.935 33.5283ZM118.299 30.9912L118.298 28.9912C115.781 28.9915 113.74 30.6139 112.826 32.7374L114.663 33.5283L116.5 34.3193C116.877 33.4432 117.606 32.9913 118.299 32.9912L118.299 30.9912ZM114.663 33.5283V31.5283H113.888V33.5283V35.5283H114.663V33.5283ZM113.888 33.5283L115.724 32.7374C114.81 30.6134 112.768 28.9912 110.251 28.9912V30.9912V32.9912C110.944 32.9912 111.673 33.4433 112.051 34.3193L113.888 33.5283ZM110.251 30.9912L110.251 28.9912C107.733 28.9915 105.692 30.614 104.778 32.7373L106.615 33.5283L108.452 34.3193C108.829 33.4431 109.558 32.9913 110.251 32.9912L110.251 30.9912ZM106.615 33.5283V31.5283H105.839V33.5283V35.5283H106.615V33.5283ZM105.839 33.5283L107.676 32.7373C106.761 30.6141 104.72 28.9914 102.203 28.9912L102.203 30.9912L102.203 32.9912C102.896 32.9913 103.624 33.443 104.002 34.3193L105.839 33.5283ZM102.203 30.9912V28.9912C99.6854 28.9912 97.6446 30.6142 96.7303 32.7372L98.5672 33.5283L100.404 34.3194C100.782 33.4429 101.51 32.9912 102.203 32.9912V30.9912ZM98.5672 33.5283V31.5283H97.7908V33.5283V35.5283H98.5672V33.5283ZM97.7908 33.5283L99.6277 32.7373C98.7134 30.6142 96.6727 28.9912 94.1551 28.9912V30.9912V32.9912C94.8477 32.9912 95.5764 33.4428 95.9539 34.3194L97.7908 33.5283ZM94.1551 30.9912L94.155 28.9912C91.6376 28.9913 89.5967 30.6141 88.6824 32.7373L90.5193 33.5283L92.3563 34.3193C92.7337 33.4429 93.4624 32.9912 94.1552 32.9912L94.1551 30.9912ZM90.5193 33.5283V31.5283H89.743V33.5283V35.5283H90.5193V33.5283ZM89.743 33.5283L91.5799 32.7373C90.6656 30.6142 88.6248 28.9912 86.1072 28.9912V30.9912V32.9912C86.7999 32.9912 87.5286 33.4428 87.9061 34.3194L89.743 33.5283ZM86.1072 30.9912L86.1072 28.9912C83.5898 28.9913 81.5489 30.6141 80.6346 32.7373L82.4715 33.5283L84.3084 34.3193C84.6858 33.4429 85.4145 32.9912 86.1073 32.9912L86.1072 30.9912ZM82.4715 33.5283V31.5283H81.6951V33.5283V35.5283H82.4715V33.5283ZM81.6951 33.5283L83.532 32.7373C82.6178 30.6142 80.577 28.9912 78.0594 28.9912L78.0594 30.9912L78.0594 32.9912C78.7521 32.9912 79.4807 33.4428 79.8582 34.3194L81.6951 33.5283ZM78.0594 30.9912V28.9912C75.5418 28.9912 73.501 30.6142 72.5867 32.7373L74.4236 33.5283L76.2606 34.3194C76.638 33.4428 77.3667 32.9912 78.0594 32.9912V30.9912ZM74.4236 33.5283V31.5283H73.7703V33.5283V35.5283H74.4236V33.5283ZM73.7703 33.5283L75.6072 32.7373C74.6929 30.6142 72.6522 28.9912 70.1346 28.9912L70.1346 30.9912L70.1346 32.9912C70.8273 32.9912 71.5559 33.4428 71.9334 34.3194L73.7703 33.5283ZM70.1346 30.9912V28.9912C67.617 28.9912 65.5762 30.6142 64.6619 32.7373L66.4988 33.5283L68.3358 34.3194C68.7132 33.4428 69.4419 32.9912 70.1346 32.9912V30.9912ZM66.4988 33.5283V31.5283H65.7225V33.5283V35.5283H66.4988V33.5283ZM65.7225 33.5283L67.5594 32.7373C66.6451 30.6141 64.6042 28.9913 62.0868 28.9912L62.0867 30.9912L62.0867 32.9912C62.7794 32.9912 63.5081 33.4429 63.8856 34.3193L65.7225 33.5283ZM62.0867 30.9912V28.9912C61.2573 28.9912 60.4679 29.1721 59.7534 29.4926L60.5721 31.3174L61.3908 33.1421C61.6115 33.0431 61.8444 32.9912 62.0867 32.9912V30.9912ZM60.5721 31.3174H62.5721V16.6367H60.5721H58.5721V31.3174H60.5721ZM60.5721 16.6367V18.6367H128.072V16.6367V14.6367H60.5721V16.6367ZM128.072 16.6367H126.072V31.4189H128.072H130.072V16.6367H128.072Z" fill="black" mask="url(#path-9-inside-2_760_142)"/>
        <path d="M101.188 17.5283L101.188 30.5283" stroke="black" stroke-width="2"/>
    </g>
    <path d="M67.4 4.52832L67.4 31.0283" stroke="black" stroke-width="1.8"/>
    <path d="M110.5 6.52832V30.5283" stroke="black" stroke-width="2"/>
</svg>

