<svg width="123" height="101" viewBox="0 0 123 101" fill="none" xmlns="http://www.w3.org/2000/svg">
<path d="M68 37L41.3259 52.4498" stroke="black" stroke-width="2"/>
<path d="M10.9085 54.6099V84.3048H53.9661V56.0947M53.9661 56.0947L56.9356 59.0642L61.3898 54.6099L31.6949 24.915L2 54.6099L6.45423 59.0642L31.6949 33.8235L53.9661 56.0947Z" stroke="black" stroke-width="2"/>
<path d="M45.0574 38.2778V32.3388H53.9659V47.1862" stroke="black" stroke-width="2"/>
<path d="M24.2712 84.3048V62.0337H40.6034V84.3048" stroke="black" stroke-width="2"/>
<rect x="71.2407" y="12.5333" width="36.6186" height="4.73333" fill="#D2553C" stroke="black" stroke-width="1.8"/>
<rect x="74.5814" y="32.9498" width="29.9371" height="3.1" fill="#D2553C" stroke="black" stroke-width="1.8"/>
<rect x="111.2" y="10.9" width="47.2" height="3.21112" transform="rotate(90 111.2 10.9)" fill="#D2553C" stroke="black" stroke-width="1.8"/>
<rect x="71.1111" y="10.9" width="47.2" height="3.21112" transform="rotate(90 71.1111 10.9)" fill="#D2553C" stroke="black" stroke-width="1.8"/>
<rect x="107.859" y="17.4332" width="40.6667" height="3.21112" transform="rotate(90 107.859 17.4332)" fill="#D2553C" stroke="black" stroke-width="1.8"/>
<rect x="74.4518" y="17.4332" width="40.6667" height="3.21112" transform="rotate(90 74.4518 17.4332)" fill="#D2553C" stroke="black" stroke-width="1.8"/>
<rect x="104.519" y="36.2169" width="21.8833" height="3.21112" transform="rotate(90 104.519 36.2169)" fill="#D2553C" stroke="black" stroke-width="1.8"/>
<rect x="77.7926" y="36.2169" width="21.8833" height="3.21112" transform="rotate(90 77.7926 36.2169)" fill="#D2553C" stroke="black" stroke-width="1.8"/>
</svg>
