<svg width="113" height="79" viewBox="0 0 113 79" fill="none" xmlns="http://www.w3.org/2000/svg">
    <path d="M12.3608 77.0931H33.5678L31.2956 70.6461H14.633L12.3608 77.0931Z" stroke="black" stroke-width="2"/>
    <path d="M18.42 70.646V21.9536" stroke="black" stroke-width="2"/>
    <path d="M28.2661 70.646V21.9536" stroke="black" stroke-width="2"/>
    <path d="M14.6332 21.248H31.2958L29.0236 10.2881H16.9054L14.6332 21.248Z" stroke="black" stroke-width="2"/>
    <path d="M16.1478 12.8669H1.75732V18.0246H14.633" stroke="black" stroke-width="2"/>
    <path d="M28.7778 13.2153H109.696V18.94H89.9119M30.8131 18.94H89.9119M89.9119 18.94V29.2805V34.8041" stroke="black" stroke-width="2"/>
    <path d="M5.54431 12.8668L22.9643 1.90689L63.1061 12.8668" stroke="black" stroke-width="2"/>
    <path d="M22.9644 1.90689V10.288" stroke="black" stroke-width="2"/>
    <path d="M19.1774 53.8838H27.5087" stroke="black" stroke-width="2"/>
    <path d="M19.1774 35.8321H27.5087" stroke="black" stroke-width="2"/>
    <path d="M6.30175 18.6692V25.1162M6.30175 25.1162H11.6035V30.9185H1V25.1162H6.30175Z" stroke="black" stroke-width="2"/>
    <path d="M90.4392 34.8041L68.8505 55.8788L71.9346 58.7268L90.4392 41.6391L108.43 58.7268L111 55.8788L105.86 50.183V39.9304H99.1776V43.3479L90.4392 34.8041Z" fill="#D2553C"/>
    <path d="M75.1729 55.8788V76.9536H105.731V56.9326M105.731 56.9326L107.839 59.0401L111 55.8788L89.9252 34.8041L68.8505 55.8788L72.0117 59.0401L89.9252 41.1265L105.731 56.9326Z" stroke="black" stroke-width="2"/>
    <path d="M99.4089 44.2877V40.0728H105.731V50.6102" stroke="black" stroke-width="2"/>
    <path d="M84.6565 76.9536V61.1476H96.2476V76.9536" stroke="black" stroke-width="2"/>
</svg>
