<svg width="135" height="101" viewBox="0 0 135 101" fill="none" xmlns="http://www.w3.org/2000/svg">
<path d="M107.486 74.5551L91.0414 74.491L91.2552 19.6763L107.7 19.7405L107.514 67.2465L107.486 74.5551Z" stroke="black" stroke-width="2"/>
<path d="M106.626 60.8477L101.144 60.8264" stroke="black" stroke-width="2" stroke-linecap="round"/>
<path d="M107.671 27.0489L100.363 27.0204" stroke="black" stroke-width="2" stroke-linecap="round"/>
<path d="M107.592 47.1476L100.284 47.119" stroke="black" stroke-width="2" stroke-linecap="round"/>
<path d="M107.514 67.2462L100.205 67.2177" stroke="black" stroke-width="2" stroke-linecap="round"/>
<path d="M107.564 54.4563L102.082 54.4349" stroke="black" stroke-width="2" stroke-linecap="round"/>
<path d="M107.65 32.5304L102.168 32.509" stroke="black" stroke-width="2" stroke-linecap="round"/>
<path d="M107.621 39.8391L102.14 39.8177" stroke="black" stroke-width="2" stroke-linecap="round"/>
<path d="M1 60.1777C5.0984 53.4353 19.4428 54.1844 21.492 60.1777C23.1894 65.1419 22.0748 35.669 21.6421 25.4022C21.552 23.2655 20.338 21.3268 18.3833 20.4591C13.1017 18.1143 9.25379 17.8112 3.96509 20.3489C2.07365 21.2565 1 23.2526 1 25.3505V60.1777ZM1 60.1777C1 65.4216 4.0738 69.1673 11.246 69.1673C18.4182 69.1673 82.968 69.1673 82.968 69.1673V25.7169H22.5166" stroke="black" stroke-width="2"/>
<mask id="path-10-inside-1_3001_131" fill="white">
<path d="M39.4542 75.7449C39.4542 69.7062 41.853 63.9149 46.123 59.6449C50.393 55.3749 56.1844 52.976 62.2231 52.976C68.2617 52.976 74.0531 55.3749 78.3231 59.6449C82.5931 63.9149 84.9919 69.7062 84.9919 75.7449L62.2231 75.7449L39.4542 75.7449Z"/>
</mask>
<path d="M39.4542 75.7449C39.4542 69.7062 41.853 63.9149 46.123 59.6449C50.393 55.3749 56.1844 52.976 62.2231 52.976C68.2617 52.976 74.0531 55.3749 78.3231 59.6449C82.5931 63.9149 84.9919 69.7062 84.9919 75.7449L62.2231 75.7449L39.4542 75.7449Z" fill="#E9F4FF" stroke="black" stroke-width="4" mask="url(#path-10-inside-1_3001_131)"/>
<path d="M73.8605 58.0358V74.7329" stroke="black" stroke-width="2"/>
<path d="M71.799 37.2788C71.6703 38.6977 71.294 40.4485 70.7296 42.1509C70.0615 44.1658 69.1802 45.962 68.2628 47.022L68.0792 47.2241C65.8926 49.5018 63.5385 50.9643 60.7052 50.9644L60.4406 50.9595C57.8998 50.8771 55.7449 49.6106 53.7433 47.6411L53.3312 47.2241C52.3485 46.2004 51.3933 44.2999 50.6808 42.1509C50.1164 40.4485 49.7401 38.6977 49.6115 37.2788H71.799Z" fill="#E9F4FF" stroke="black" stroke-width="2"/>
<mask id="path-13-inside-2_3001_131" fill="white">
<path d="M75.8844 37.7968C75.8844 35.8034 75.4918 33.8295 74.7289 31.9879C73.9661 30.1463 72.848 28.4729 71.4385 27.0634C70.029 25.6539 68.3556 24.5358 66.514 23.7729C64.6724 23.0101 62.6985 22.6175 60.7051 22.6175C58.7118 22.6175 56.7379 23.0101 54.8963 23.7729C53.0547 24.5358 51.3813 25.6539 49.9718 27.0634C48.5623 28.4729 47.4442 30.1463 46.6813 31.9879C45.9185 33.8295 45.5259 35.8034 45.5259 37.7968L60.7051 37.7968H75.8844Z"/>
</mask>
<path d="M75.8844 37.7968C75.8844 35.8034 75.4918 33.8295 74.7289 31.9879C73.9661 30.1463 72.848 28.4729 71.4385 27.0634C70.029 25.6539 68.3556 24.5358 66.514 23.7729C64.6724 23.0101 62.6985 22.6175 60.7051 22.6175C58.7118 22.6175 56.7379 23.0101 54.8963 23.7729C53.0547 24.5358 51.3813 25.6539 49.9718 27.0634C48.5623 28.4729 47.4442 30.1463 46.6813 31.9879C45.9185 33.8295 45.5259 35.8034 45.5259 37.7968L60.7051 37.7968H75.8844Z" fill="#D2553C" stroke="black" stroke-width="4" mask="url(#path-13-inside-2_3001_131)"/>
<path d="M68.8007 26.6653L68.8007 30.7131" stroke="black" stroke-width="2"/>
<path d="M60.7051 23.6295L60.7051 27.6773" stroke="black" stroke-width="2"/>
<path d="M52.6095 26.6653L52.6095 30.7131" stroke="black" stroke-width="2"/>
<path d="M49.5736 58.0358V74.227" stroke="black" stroke-width="2"/>
</svg>
