<svg width="123" height="101" viewBox="0 0 123 101" fill="none" xmlns="http://www.w3.org/2000/svg">
<path d="M68 35L41.3259 50.4498" stroke="black" stroke-width="2"/>
<path d="M10.9085 52.6099V82.3048H53.9661V54.0947M53.9661 54.0947L56.9356 57.0642L61.3898 52.6099L31.6949 22.915L2 52.6099L6.45423 57.0642L31.6949 31.8235L53.9661 54.0947Z" stroke="black" stroke-width="2"/>
<path d="M45.0574 36.2778V30.3388H53.9659V45.1862" stroke="black" stroke-width="2"/>
<path d="M24.2712 82.3049V60.0337H40.6034V82.3049" stroke="black" stroke-width="2"/>
<mask id="mask0_3001_135" style="mask-type:alpha" maskUnits="userSpaceOnUse" x="67" y="17" width="45" height="36">
<rect x="67" y="17" width="45" height="36" fill="#D2553C"/>
</mask>
<g mask="url(#mask0_3001_135)">
<mask id="path-6-inside-1_3001_135" fill="white">
<path d="M59.9767 19C60.6225 20.5937 62.0082 21.6953 63.6134 21.6953C65.2184 21.6952 66.6033 20.5935 67.2491 19H68.0255C68.6714 20.5937 70.0561 21.6963 71.6613 21.6963C73.2664 21.6963 74.6511 20.5937 75.297 19H76.0734C76.7192 20.5936 78.104 21.6963 79.7091 21.6963C81.3142 21.6962 82.699 20.5936 83.3448 19H84.1212C84.7671 20.5937 86.1518 21.6963 87.757 21.6963C89.3621 21.6963 90.7468 20.5937 91.3927 19H92.1691C92.8149 20.5936 94.1997 21.6963 95.8048 21.6963C97.4099 21.6962 98.7947 20.5936 99.4406 19H100.217C100.863 20.5937 102.248 21.6963 103.853 21.6963C105.458 21.6963 106.843 20.5937 107.488 19H108.265C108.911 20.5938 110.296 21.6963 111.901 21.6963C113.507 21.6961 114.891 20.5936 115.537 19H116.313C116.958 20.5936 118.343 21.6962 119.948 21.6963C121.554 21.6963 122.939 20.5938 123.585 19H124.361C125.007 20.5936 126.392 21.6963 127.997 21.6963C129.602 21.6962 130.987 20.5936 131.633 19H132.408C133.054 20.5938 134.44 21.6963 136.045 21.6963C137.65 21.6961 139.035 20.5936 139.681 19H140.068V35.1738H59.589V19H59.9767Z"/>
</mask>
<path d="M59.9767 19C60.6225 20.5937 62.0082 21.6953 63.6134 21.6953C65.2184 21.6952 66.6033 20.5935 67.2491 19H68.0255C68.6714 20.5937 70.0561 21.6963 71.6613 21.6963C73.2664 21.6963 74.6511 20.5937 75.297 19H76.0734C76.7192 20.5936 78.104 21.6963 79.7091 21.6963C81.3142 21.6962 82.699 20.5936 83.3448 19H84.1212C84.7671 20.5937 86.1518 21.6963 87.757 21.6963C89.3621 21.6963 90.7468 20.5937 91.3927 19H92.1691C92.8149 20.5936 94.1997 21.6963 95.8048 21.6963C97.4099 21.6962 98.7947 20.5936 99.4406 19H100.217C100.863 20.5937 102.248 21.6963 103.853 21.6963C105.458 21.6963 106.843 20.5937 107.488 19H108.265C108.911 20.5938 110.296 21.6963 111.901 21.6963C113.507 21.6961 114.891 20.5936 115.537 19H116.313C116.958 20.5936 118.343 21.6962 119.948 21.6963C121.554 21.6963 122.939 20.5938 123.585 19H124.361C125.007 20.5936 126.392 21.6963 127.997 21.6963C129.602 21.6962 130.987 20.5936 131.633 19H132.408C133.054 20.5938 134.44 21.6963 136.045 21.6963C137.65 21.6961 139.035 20.5936 139.681 19H140.068V35.1738H59.589V19H59.9767Z" fill="#D2553C"/>
<path d="M59.9767 19L61.8303 18.2489L61.3242 17H59.9767V19ZM63.6134 21.6953V23.6953H63.6136L63.6134 21.6953ZM67.2491 19V17H65.9017L65.3956 18.2488L67.2491 19ZM68.0255 19L69.8791 18.2488L69.373 17H68.0255V19ZM71.6613 21.6963V23.6963H71.6613L71.6613 21.6963ZM75.297 19V17H73.9495L73.4434 18.2488L75.297 19ZM76.0734 19L77.9269 18.2488L77.4208 17H76.0734V19ZM79.7091 21.6963V23.6963H79.7092L79.7091 21.6963ZM83.3448 19V17H81.9974L81.4913 18.2488L83.3448 19ZM84.1212 19L85.9748 18.2488L85.4687 17H84.1212V19ZM87.757 21.6963L87.7569 23.6963H87.757V21.6963ZM91.3927 19V17H90.0452L89.5391 18.2488L91.3927 19ZM92.1691 19L94.0226 18.2488L93.5165 17H92.1691V19ZM95.8048 21.6963V23.6963H95.8049L95.8048 21.6963ZM99.4406 19V17H98.0931L97.587 18.2488L99.4406 19ZM100.217 19L102.07 18.2488L101.564 17H100.217V19ZM103.853 21.6963L103.853 23.6963H103.853V21.6963ZM107.488 19V17H106.141L105.635 18.2488L107.488 19ZM108.265 19L110.118 18.2489L109.612 17H108.265V19ZM111.901 21.6963V23.6963H111.902L111.901 21.6963ZM115.537 19V17H114.19L113.684 18.2489L115.537 19ZM116.313 19L118.166 18.2489L117.66 17H116.313V19ZM119.948 21.6963L119.948 23.6963H119.948V21.6963ZM123.585 19V17H122.238L121.731 18.2489L123.585 19ZM124.361 19L126.215 18.2488L125.709 17H124.361V19ZM127.997 21.6963V23.6963H127.997L127.997 21.6963ZM131.633 19V17H130.285L129.779 18.2488L131.633 19ZM132.408 19L134.262 18.2489L133.756 17H132.408V19ZM136.045 21.6963V23.6963H136.045L136.045 21.6963ZM139.681 19V17H138.333L137.827 18.2489L139.681 19ZM140.068 19H142.068V17H140.068V19ZM140.068 35.1738V37.1738H142.068V35.1738H140.068ZM59.589 35.1738H57.589V37.1738H59.589V35.1738ZM59.589 19V17H57.589V19H59.589ZM59.9767 19L58.1231 19.7511C59.0065 21.9311 61.0258 23.6953 63.6134 23.6953V21.6953V19.6953C62.9906 19.6953 62.2386 19.2564 61.8303 18.2489L59.9767 19ZM63.6134 21.6953L63.6136 23.6953C66.2014 23.6951 68.2195 21.9304 69.1027 19.7512L67.2491 19L65.3956 18.2488C64.9871 19.2567 64.2355 19.6953 63.6132 19.6953L63.6134 21.6953ZM67.2491 19V21H68.0255V19V17H67.2491V19ZM68.0255 19L66.1719 19.7512C67.0548 21.9296 69.0724 23.6963 71.6613 23.6963V21.6963V19.6963C71.0398 19.6963 70.288 19.2578 69.8791 18.2488L68.0255 19ZM71.6613 21.6963L71.6613 23.6963C74.2501 23.6963 76.2677 21.9296 77.1506 19.7512L75.297 19L73.4434 18.2488C73.0345 19.2577 72.2827 19.6963 71.6613 19.6963L71.6613 21.6963ZM75.297 19V21H76.0734V19V17H75.297V19ZM76.0734 19L74.2198 19.7512C75.1026 21.9295 77.1202 23.6963 79.7091 23.6963V21.6963V19.6963C79.0877 19.6963 78.3358 19.2577 77.9269 18.2488L76.0734 19ZM79.7091 21.6963L79.7092 23.6963C82.2979 23.6962 84.3156 21.9297 85.1984 19.7512L83.3448 19L81.4913 18.2488C81.0825 19.2576 80.3306 19.6963 79.709 19.6963L79.7091 21.6963ZM83.3448 19V21H84.1212V19V17H83.3448V19ZM84.1212 19L82.2676 19.7512C83.1505 21.9296 85.1681 23.6962 87.7569 23.6963L87.757 21.6963L87.757 19.6963C87.1355 19.6963 86.3836 19.2577 85.9748 18.2488L84.1212 19ZM87.757 21.6963V23.6963C90.3458 23.6963 92.3634 21.9296 93.2463 19.7512L91.3927 19L89.5391 18.2488C89.1302 19.2577 88.3784 19.6963 87.757 19.6963V21.6963ZM91.3927 19V21H92.1691V19V17H91.3927V19ZM92.1691 19L90.3155 19.7512C91.1983 21.9295 93.2159 23.6963 95.8048 23.6963V21.6963V19.6963C95.1834 19.6963 94.4315 19.2577 94.0226 18.2488L92.1691 19ZM95.8048 21.6963L95.8049 23.6963C98.3936 23.6962 100.411 21.9297 101.294 19.7512L99.4406 19L97.587 18.2488C97.1782 19.2576 96.4263 19.6963 95.8047 19.6963L95.8048 21.6963ZM99.4406 19V21H100.217V19V17H99.4406V19ZM100.217 19L98.3633 19.7512C99.2462 21.9296 101.264 23.6962 103.853 23.6963L103.853 21.6963L103.853 19.6963C103.231 19.6963 102.479 19.2577 102.07 18.2488L100.217 19ZM103.853 21.6963V23.6963C106.442 23.6963 108.459 21.9296 109.342 19.7512L107.488 19L105.635 18.2488C105.226 19.2577 104.474 19.6963 103.853 19.6963V21.6963ZM107.488 19V21H108.265V19V17H107.488V19ZM108.265 19L106.411 19.7511C107.294 21.9303 109.313 23.6963 111.901 23.6963V21.6963V19.6963C111.279 19.6963 110.527 19.2572 110.118 18.2489L108.265 19ZM111.901 21.6963L111.902 23.6963C114.49 23.696 116.508 21.9298 117.391 19.7511L115.537 19L113.684 18.2489C113.275 19.2574 112.523 19.6962 111.901 19.6963L111.901 21.6963ZM115.537 19V21H116.313V19V17H115.537V19ZM116.313 19L114.459 19.7511C115.342 21.9297 117.36 23.6961 119.948 23.6963L119.948 21.6963L119.949 19.6963C119.327 19.6962 118.575 19.2575 118.166 18.2489L116.313 19ZM119.948 21.6963V23.6963C122.537 23.6963 124.556 21.9304 125.439 19.7511L123.585 19L121.731 18.2489C121.323 19.2572 120.571 19.6963 119.948 19.6963V21.6963ZM123.585 19V21H124.361V19V17H123.585V19ZM124.361 19L122.508 19.7512C123.391 21.9295 125.408 23.6963 127.997 23.6963V21.6963V19.6963C127.376 19.6963 126.624 19.2577 126.215 18.2488L124.361 19ZM127.997 21.6963L127.997 23.6963C130.586 23.6962 132.604 21.9297 133.487 19.7512L131.633 19L129.779 18.2488C129.371 19.2576 128.619 19.6963 127.997 19.6963L127.997 21.6963ZM131.633 19V21H132.408V19V17H131.633V19ZM132.408 19L130.555 19.7511C131.438 21.9303 133.457 23.6963 136.045 23.6963V21.6963V19.6963C135.423 19.6963 134.671 19.2572 134.262 18.2489L132.408 19ZM136.045 21.6963L136.045 23.6963C138.634 23.696 140.652 21.9298 141.534 19.7511L139.681 19L137.827 18.2489C137.419 19.2574 136.667 19.6962 136.045 19.6963L136.045 21.6963ZM139.681 19V21H140.068V19V17H139.681V19ZM140.068 19H138.068V35.1738H140.068H142.068V19H140.068ZM140.068 35.1738V33.1738H59.589V35.1738V37.1738H140.068V35.1738ZM59.589 35.1738H61.589V19H59.589H57.589V35.1738H59.589ZM59.589 19V21H59.9767V19V17H59.589V19Z" fill="black" mask="url(#path-6-inside-1_3001_135)"/>
<path d="M86.6071 22.3691V34.4994" stroke="black" stroke-width="2"/>
<mask id="path-9-inside-2_3001_135" fill="white">
<path d="M128.572 47.8906C128.049 47.6164 127.464 47.4629 126.846 47.4629C125.241 47.463 123.857 48.5002 123.211 50H122.435C121.79 48.5001 120.404 47.4629 118.799 47.4629C117.194 47.4631 115.809 48.5002 115.163 50H114.388C113.742 48.5001 112.356 47.4629 110.751 47.4629C109.146 47.463 107.761 48.5002 107.115 50H106.339C105.693 48.5002 104.308 47.463 102.703 47.4629C101.098 47.4629 99.7131 48.5002 99.0672 50H98.2908C97.6449 48.5002 96.2602 47.4629 94.6551 47.4629C93.05 47.4629 91.6652 48.5002 91.0193 50H90.243C89.5971 48.5002 88.2123 47.4629 86.6072 47.4629C85.0021 47.4629 83.6174 48.5002 82.9715 50H82.1951C81.5492 48.5002 80.1645 47.4629 78.5594 47.4629C76.9543 47.4629 75.5695 48.5002 74.9236 50H74.2703C73.6244 48.5002 72.2397 47.4629 70.6346 47.4629C69.0295 47.4629 67.6447 48.5002 66.9988 50H66.2225C65.5766 48.5002 64.1918 47.4629 62.5867 47.4629C62.0505 47.4629 61.5389 47.579 61.0711 47.7891V33.1084H128.572V47.8906Z"/>
</mask>
<path d="M128.572 47.8906C128.049 47.6164 127.464 47.4629 126.846 47.4629C125.241 47.463 123.857 48.5002 123.211 50H122.435C121.79 48.5001 120.404 47.4629 118.799 47.4629C117.194 47.4631 115.809 48.5002 115.163 50H114.388C113.742 48.5001 112.356 47.4629 110.751 47.4629C109.146 47.463 107.761 48.5002 107.115 50H106.339C105.693 48.5002 104.308 47.463 102.703 47.4629C101.098 47.4629 99.7131 48.5002 99.0672 50H98.2908C97.6449 48.5002 96.2602 47.4629 94.6551 47.4629C93.05 47.4629 91.6652 48.5002 91.0193 50H90.243C89.5971 48.5002 88.2123 47.4629 86.6072 47.4629C85.0021 47.4629 83.6174 48.5002 82.9715 50H82.1951C81.5492 48.5002 80.1645 47.4629 78.5594 47.4629C76.9543 47.4629 75.5695 48.5002 74.9236 50H74.2703C73.6244 48.5002 72.2397 47.4629 70.6346 47.4629C69.0295 47.4629 67.6447 48.5002 66.9988 50H66.2225C65.5766 48.5002 64.1918 47.4629 62.5867 47.4629C62.0505 47.4629 61.5389 47.579 61.0711 47.7891V33.1084H128.572V47.8906Z" fill="#D2553C"/>
<path d="M128.572 47.8906L127.643 49.6619L130.572 51.1977V47.8906H128.572ZM126.846 47.4629V45.4629H126.846L126.846 47.4629ZM123.211 50V52H124.527L125.048 50.791L123.211 50ZM122.435 50L120.598 50.791L121.119 52H122.435V50ZM118.799 47.4629V45.4629H118.798L118.799 47.4629ZM115.163 50V52H116.479L117 50.791L115.163 50ZM114.388 50L112.551 50.7909L113.071 52H114.388V50ZM110.751 47.4629V45.4629H110.751L110.751 47.4629ZM107.115 50V52H108.431L108.952 50.791L107.115 50ZM106.339 50L104.502 50.791L105.022 52H106.339V50ZM102.703 47.4629L102.703 45.4629H102.703V47.4629ZM99.0672 50V52H100.383L100.904 50.7911L99.0672 50ZM98.2908 50L96.4539 50.7911L96.9746 52H98.2908V50ZM94.6551 47.4629V45.4629H94.655L94.6551 47.4629ZM91.0193 50V52H92.3357L92.8563 50.791L91.0193 50ZM90.243 50L88.4061 50.7911L88.9267 52H90.243V50ZM86.6072 47.4629V45.4629H86.6072L86.6072 47.4629ZM82.9715 50V52H84.2878L84.8084 50.791L82.9715 50ZM82.1951 50L80.3582 50.791L80.8788 52H82.1951V50ZM78.5594 47.4629L78.5594 45.4629H78.5594V47.4629ZM74.9236 50V52H76.2399L76.7606 50.791L74.9236 50ZM74.2703 50L72.4334 50.791L72.954 52H74.2703V50ZM70.6346 47.4629L70.6346 45.4629H70.6346V47.4629ZM66.9988 50V52H68.3151L68.8358 50.791L66.9988 50ZM66.2225 50L64.3856 50.791L64.9062 52H66.2225V50ZM62.5867 47.4629L62.5868 45.4629H62.5867V47.4629ZM61.0711 47.7891H59.0711V50.8792L61.8902 49.6136L61.0711 47.7891ZM61.0711 33.1084V31.1084H59.0711V33.1084H61.0711ZM128.572 33.1084H130.572V31.1084H128.572V33.1084ZM128.572 47.8906L129.501 46.1194C128.704 45.7013 127.801 45.4629 126.846 45.4629V47.4629V49.4629C127.127 49.4629 127.395 49.5316 127.643 49.6619L128.572 47.8906ZM126.846 47.4629L126.846 45.4629C124.329 45.4631 122.288 47.0857 121.374 49.209L123.211 50L125.048 50.791C125.425 49.9148 126.154 49.463 126.847 49.4629L126.846 47.4629ZM123.211 50V48H122.435V50V52H123.211V50ZM122.435 50L124.272 49.209C123.358 47.0851 121.316 45.4629 118.799 45.4629V47.4629V49.4629C119.492 49.4629 120.221 49.915 120.598 50.791L122.435 50ZM118.799 47.4629L118.798 45.4629C116.281 45.4632 114.24 47.0856 113.326 49.209L115.163 50L117 50.791C117.377 49.9148 118.106 49.463 118.799 49.4629L118.799 47.4629ZM115.163 50V48H114.388V50V52H115.163V50ZM114.388 50L116.224 49.2091C115.31 47.0851 113.268 45.4629 110.751 45.4629V47.4629V49.4629C111.444 49.4629 112.173 49.915 112.551 50.7909L114.388 50ZM110.751 47.4629L110.751 45.4629C108.233 45.4631 106.192 47.0857 105.278 49.209L107.115 50L108.952 50.791C109.329 49.9148 110.058 49.463 110.751 49.4629L110.751 47.4629ZM107.115 50V48H106.339V50V52H107.115V50ZM106.339 50L108.176 49.209C107.261 47.0857 105.22 45.4631 102.703 45.4629L102.703 47.4629L102.703 49.4629C103.396 49.4629 104.124 49.9147 104.502 50.791L106.339 50ZM102.703 47.4629V45.4629C100.185 45.4629 98.1446 47.0859 97.2303 49.2089L99.0672 50L100.904 50.7911C101.282 49.9145 102.01 49.4629 102.703 49.4629V47.4629ZM99.0672 50V48H98.2908V50V52H99.0672V50ZM98.2908 50L100.128 49.2089C99.2134 47.0859 97.1727 45.4629 94.6551 45.4629V47.4629V49.4629C95.3477 49.4629 96.0764 49.9145 96.4539 50.7911L98.2908 50ZM94.6551 47.4629L94.655 45.4629C92.1376 45.463 90.0967 47.0858 89.1824 49.209L91.0193 50L92.8563 50.791C93.2337 49.9146 93.9624 49.4629 94.6552 49.4629L94.6551 47.4629ZM91.0193 50V48H90.243V50V52H91.0193V50ZM90.243 50L92.0799 49.2089C91.1656 47.0859 89.1248 45.4629 86.6072 45.4629V47.4629V49.4629C87.2999 49.4629 88.0286 49.9145 88.4061 50.7911L90.243 50ZM86.6072 47.4629L86.6072 45.4629C84.0898 45.463 82.0489 47.0858 81.1346 49.209L82.9715 50L84.8084 50.791C85.1858 49.9146 85.9145 49.4629 86.6073 49.4629L86.6072 47.4629ZM82.9715 50V48H82.1951V50V52H82.9715V50ZM82.1951 50L84.032 49.209C83.1178 47.0858 81.077 45.4629 78.5594 45.4629L78.5594 47.4629L78.5594 49.4629C79.2521 49.4629 79.9807 49.9145 80.3582 50.791L82.1951 50ZM78.5594 47.4629V45.4629C76.0418 45.4629 74.001 47.0858 73.0867 49.209L74.9236 50L76.7606 50.791C77.138 49.9145 77.8667 49.4629 78.5594 49.4629V47.4629ZM74.9236 50V48H74.2703V50V52H74.9236V50ZM74.2703 50L76.1072 49.209C75.1929 47.0858 73.1522 45.4629 70.6346 45.4629L70.6346 47.4629L70.6346 49.4629C71.3273 49.4629 72.0559 49.9145 72.4334 50.791L74.2703 50ZM70.6346 47.4629V45.4629C68.117 45.4629 66.0762 47.0858 65.1619 49.209L66.9988 50L68.8358 50.791C69.2132 49.9145 69.9419 49.4629 70.6346 49.4629V47.4629ZM66.9988 50V48H66.2225V50V52H66.9988V50ZM66.2225 50L68.0594 49.209C67.1451 47.0858 65.1042 45.463 62.5868 45.4629L62.5867 47.4629L62.5867 49.4629C63.2794 49.4629 64.0081 49.9146 64.3856 50.791L66.2225 50ZM62.5867 47.4629V45.4629C61.7578 45.4629 60.9678 45.6432 60.252 45.9645L61.0711 47.7891L61.8902 49.6136C62.1101 49.5149 62.3433 49.4629 62.5867 49.4629V47.4629ZM61.0711 47.7891H63.0711V33.1084H61.0711H59.0711V47.7891H61.0711ZM61.0711 33.1084V35.1084H128.572V33.1084V31.1084H61.0711V33.1084ZM128.572 33.1084H126.572V47.8906H128.572H130.572V33.1084H128.572Z" fill="black" mask="url(#path-9-inside-2_3001_135)"/>
<path d="M101.688 34L101.688 47" stroke="black" stroke-width="2"/>
</g>
<path d="M67.9 21L67.9 47.5" stroke="black" stroke-width="1.8"/>
</svg>
