<svg width="57" height="69" viewBox="0 0 57 69" fill="none" xmlns="http://www.w3.org/2000/svg">
<path d="M8.25604 8.43509C13.6525 3.02313 20.925 -0.00719768 28.4994 1.28384e-05C36.0854 1.28384e-05 43.3675 3.02862 48.7427 8.43509C53.6101 13.3245 56.1457 18.7978 56.8159 24.4821C57.4826 30.1173 56.2908 35.7735 54.0177 41.0779C49.5061 51.6306 40.5383 61.2265 31.9366 67.4701C30.934 68.2005 29.7321 68.5932 28.4994 68.5932C27.2666 68.5932 26.0647 68.2005 25.0622 67.4701C16.4605 61.2265 7.49259 51.6271 2.97757 41.0779C0.707967 35.7735 -0.480379 30.1173 0.182884 24.4786C0.853055 18.7978 3.38865 13.328 8.25604 8.43509ZM18.9995 27.261C18.9995 24.6955 20.0004 22.2351 21.782 20.421C23.5635 18.6069 25.9799 17.5878 28.4994 17.5878C31.0189 17.5878 33.4352 18.6069 35.2168 20.421C36.9984 22.2351 37.9992 24.6955 37.9992 27.261C37.9992 29.8265 36.9984 32.287 35.2168 34.101C33.4352 35.9151 31.0189 36.9343 28.4994 36.9343C25.9799 36.9343 23.5635 35.9151 21.782 34.101C20.0004 32.287 18.9995 29.8265 18.9995 27.261Z" fill="#D2553C"/>
<path d="M42.5753 26.5642V40.746H38.1969V28.3763L28.5705 18.7499L18.9326 28.3879L18.8633 28.4571V40.746H14.4849V26.6469L28.5705 12.5593L42.5753 26.5642Z" fill="white"/>
<path d="M34.0591 29.0305H22.9995V33.4147H34.0591V29.0305Z" fill="white"/>
<path d="M16.7593 24.6907L21.3085 19.8006V13.3177H16.7593L16.7593 24.6907Z" fill="white"/>
</svg>
