<svg width="181" height="47" viewBox="0 0 181 47" fill="none" xmlns="http://www.w3.org/2000/svg">
	<path d="M82.9604 1.63798L59.7222 35.1735V1.63798H52.7202V45.7145H59.5729L82.7503 12.2368V45.7145H89.7522V1.63798H82.9604Z" fill="#1D1D1B"/>
	<path d="M133.658 34.3086C131.636 36.1725 129.653 37.5857 127.74 38.5116C125.739 39.4984 123.397 39.9948 120.787 39.9948C116.474 39.9948 112.829 38.3898 109.951 35.2223C107.082 32.0761 105.629 28.1899 105.629 23.6671C105.629 19.1139 107.072 15.2094 109.923 12.0845C112.771 8.94751 116.438 7.35464 120.79 7.35464C125.124 7.35464 129.336 9.17594 133.311 12.7637L137.882 7.49474C135.61 5.39324 133.161 3.76078 130.6 2.62476C127.95 1.45828 124.673 0.861328 120.86 0.861328C114.288 0.861328 108.799 3.09378 104.535 7.47647C100.272 11.8683 98.1122 17.3169 98.1122 23.6732C98.1122 30.0782 100.275 35.536 104.535 39.9095C108.799 44.2709 114.187 46.482 120.543 46.482C124.439 46.482 127.804 45.8242 130.564 44.5389C133.232 43.2841 135.802 41.3927 138.202 38.9227L133.658 34.3086Z" fill="#1D1D1B"/>
	<path d="M145.152 1.63798V8.1922H159.366V45.7145H166.566V8.1922H180.78V1.63798H145.152Z" fill="#1D1D1B"/>
	<path d="M44.4725 23.262V45.7145H37.5406V26.131L22.3002 10.8906L7.04153 26.1493L6.93189 26.259V45.7145H0V23.393L22.3002 1.08975L44.4725 23.262Z" fill="#1D1D1B"/>
	<path d="M30.9896 27.1666H13.4802V34.1076H30.9896V27.1666Z" fill="#1D1D1B"/>
	<path d="M3.84368 19.5464L10.7756 12.6145V1.73848H3.84368V19.5464Z" fill="#D2553C"/>
</svg>
