<svg width="20" height="21" viewBox="0 0 20 21" fill="none" xmlns="http://www.w3.org/2000/svg">
<path fill-rule="evenodd" clip-rule="evenodd" d="M14.7126 20.7442C13.2702 20.6911 9.18226 20.1263 4.90103 15.847C0.620792 11.5666 0.0568381 7.48052 0.00274664 6.03737C-0.0773888 3.83811 1.60746 1.70193 3.55375 0.867694C3.78812 0.76651 4.04478 0.727987 4.29854 0.755903C4.5523 0.78382 4.79444 0.877217 5.0012 1.02693C6.60391 2.19467 7.70977 3.96129 8.65938 5.35035C8.86832 5.65554 8.95765 6.02691 8.91036 6.3937C8.86307 6.7605 8.68246 7.09708 8.40295 7.33931L6.44864 8.79047C6.35423 8.85863 6.28776 8.95875 6.2616 9.07221C6.23544 9.18567 6.25136 9.30477 6.3064 9.40738C6.74915 10.2116 7.53648 11.4094 8.43801 12.3107C9.33953 13.212 10.5947 14.0513 11.4551 14.544C11.563 14.6046 11.69 14.6215 11.81 14.5913C11.9299 14.5611 12.0338 14.4862 12.1002 14.3818L13.3723 12.4459C13.6062 12.1353 13.9513 11.9272 14.3352 11.8652C14.7191 11.8032 15.112 11.8922 15.4318 12.1134C16.8412 13.0889 18.486 14.1755 19.69 15.7168C19.8519 15.925 19.9549 16.1728 19.9882 16.4345C20.0215 16.6961 19.9839 16.9618 19.8793 17.204C19.0409 19.1599 16.9193 20.8253 14.7126 20.7442Z" fill="#A9A9A9"/>
</svg>
