<svg width="32" height="35" viewBox="0 0 32 35" fill="none" xmlns="http://www.w3.org/2000/svg">
<path d="M16 34.166C24.8366 34.166 32 26.5177 32 17.083C32 7.64831 24.8366 0 16 0C7.16344 0 0 7.64831 0 17.083C0 26.5177 7.16344 34.166 16 34.166Z" fill="#25D366"/>
<path fill-rule="evenodd" clip-rule="evenodd" d="M16.5272 26.5872H16.5232C14.9309 26.5866 13.3663 26.1601 11.9767 25.3508L6.93311 26.7634L8.28285 21.4996C7.45026 19.959 7.01216 18.2116 7.01287 16.4212C7.01496 10.8205 11.283 6.26379 16.5271 6.26379C19.0722 6.26497 21.461 7.32284 23.2572 9.24293C25.0535 11.1629 26.0422 13.7151 26.0412 16.4292C26.0391 22.0287 21.7728 26.5849 16.5272 26.5872ZM12.2104 23.5118L12.4991 23.6948C13.7132 24.4641 15.105 24.8711 16.524 24.8717H16.5272C20.8857 24.8717 24.4331 21.0841 24.4348 16.4287C24.4356 14.1727 23.6139 12.0514 22.1209 10.4555C20.6279 8.85962 18.6424 7.9803 16.5303 7.97952C12.1684 7.97952 8.62096 11.7667 8.61923 16.4218C8.61861 18.0171 9.03669 19.5708 9.82826 20.915L10.0163 21.2345L9.21743 24.3501L12.2104 23.5118ZM20.9947 18.6163C21.1605 18.7018 21.2725 18.7596 21.3203 18.8448C21.3797 18.9506 21.3797 19.4588 21.1817 20.0518C20.9835 20.6447 20.0338 21.1858 19.577 21.2586C19.1675 21.324 18.6492 21.3513 18.0797 21.158C17.7345 21.0411 17.2917 20.8849 16.7245 20.6234C14.4959 19.5959 12.9898 17.2897 12.7051 16.8538C12.6852 16.8233 12.6713 16.8019 12.6635 16.7909L12.6616 16.7881C12.5357 16.6089 11.6928 15.4081 11.6928 14.1652C11.6928 12.9961 12.2307 12.3833 12.4783 12.1012C12.4952 12.0819 12.5108 12.0641 12.5248 12.0478C12.7427 11.7937 13.0003 11.7302 13.1587 11.7302C13.3172 11.7302 13.4759 11.7317 13.6144 11.7392C13.6314 11.7401 13.6492 11.74 13.6676 11.7399C13.8061 11.739 13.9788 11.7379 14.1492 12.1749C14.2148 12.343 14.3107 12.5923 14.4118 12.8553C14.6164 13.387 14.8424 13.9745 14.8822 14.0595C14.9416 14.1865 14.9812 14.3347 14.902 14.5042C14.8901 14.5296 14.8791 14.5536 14.8686 14.5765C14.8091 14.7062 14.7653 14.8016 14.6643 14.9276C14.6246 14.9771 14.5835 15.0304 14.5424 15.0838C14.4607 15.1902 14.3789 15.2965 14.3077 15.3722C14.1887 15.4988 14.0648 15.6361 14.2035 15.8902C14.3421 16.1443 14.8192 16.9755 15.5259 17.6485C16.2856 18.372 16.9459 18.6778 17.2806 18.8328C17.3459 18.863 17.3988 18.8876 17.4377 18.9083C17.6753 19.0354 17.814 19.0141 17.9527 18.8448C18.0914 18.6754 18.547 18.1036 18.7054 17.8496C18.8639 17.5956 19.0224 17.6379 19.2403 17.7225C19.4582 17.8073 20.627 18.4213 20.8647 18.5483C20.9111 18.5731 20.9545 18.5955 20.9947 18.6163Z" fill="#FDFDFD"/>
</svg>
