<svg width="58" height="57" viewBox="0 0 58 57" fill="none" xmlns="http://www.w3.org/2000/svg">
    <path d="M57.5343 30.596H54.1001V4.2168C53.9171 4.37726 53.8094 4.46085 53.7155 4.55693C51.7757 6.54486 49.833 8.52991 47.9109 10.5342C47.7465 10.7052 47.6545 11.0117 47.6535 11.2548C47.6398 17.4838 47.6418 23.7118 47.6418 29.9407C47.6418 30.1464 47.6418 30.352 47.6418 30.5893H44.1811V4.36669C43.6067 4.88265 42.9969 5.37939 42.4469 5.93378C40.9799 7.41248 39.5451 8.92192 38.081 10.4045C37.8119 10.6764 37.6964 10.9444 37.6974 11.3288C37.7101 17.5414 37.7062 23.754 37.7062 29.9667V30.5816H34.2309C34.2309 30.4019 34.2309 30.2309 34.2309 30.0599C34.2309 23.3832 34.227 16.7065 34.2436 10.0297C34.2436 9.76359 34.3777 9.43307 34.5656 9.24091C37.1699 6.5708 39.7898 3.9151 42.4215 1.27094C42.5898 1.10183 42.8844 0.96924 43.1232 0.964435C44.6049 0.936572 46.0886 0.950023 47.6418 0.950023V5.92801C47.6887 5.95107 47.7367 5.97413 47.7837 5.99719C47.9843 5.76948 48.1751 5.53408 48.3865 5.31694C49.7038 3.96218 51.0172 2.60455 52.3541 1.26901C52.5234 1.09991 52.817 0.968279 53.0558 0.964435C54.5376 0.936572 56.0203 0.950984 57.5343 0.950984V30.596Z" fill="#2E454D"/>
    <path d="M27.4658 40.4775H57.5319V53.2449H44.2659V56.9392H40.6683V53.2727H27.4658V40.4775ZM44.2825 43.7213V49.9762H54.0801V43.7213H44.2825ZM40.6223 49.9771V43.7289H30.8981V49.9771H40.6223Z" fill="#2E454D"/>
    <path d="M17.4053 0.967285H30.7252V30.5979H17.4053V0.967285ZM20.8816 27.3648H21.4316C23.1922 27.3648 24.9529 27.3446 26.7126 27.3773C27.2264 27.3869 27.3272 27.2235 27.3262 26.7527C27.3115 19.439 27.3164 12.1262 27.3164 4.81247C27.3164 4.62511 27.3164 4.43679 27.3164 4.23502H20.8816V27.3648Z" fill="#2E454D"/>
    <path d="M13.8848 0.949831V30.5824H0.517979C0.517979 30.4229 0.517979 30.2547 0.517979 30.0866C0.517979 23.3801 0.514064 16.6726 0.530702 9.96613C0.530702 9.71536 0.656952 9.40309 0.834094 9.22246C3.40216 6.58694 5.99371 3.97256 8.56569 1.33896C8.85049 1.04687 9.13333 0.933497 9.54144 0.940223C10.9742 0.964243 12.407 0.949831 13.8839 0.949831H13.8848ZM10.3753 27.3646V4.20604C8.23783 6.40246 6.16498 8.52779 4.10387 10.6646C3.99818 10.7742 3.95707 10.9817 3.95707 11.1431C3.94924 16.4094 3.95414 21.6746 3.94435 26.9409C3.94435 27.2887 4.07256 27.3732 4.40042 27.3704C5.8841 27.3579 7.36778 27.3646 8.85147 27.3646C9.35353 27.3646 9.8556 27.3646 10.3763 27.3646H10.3753Z" fill="#2E454D"/>
    <path d="M23.91 40.4946V53.2446C23.679 53.2446 23.4735 53.2446 23.267 53.2446C17.0377 53.2446 10.8093 53.2446 4.58002 53.2446C4.15462 53.2446 3.9416 53.4509 3.94094 53.8634C3.94094 54.8713 3.94094 55.8792 3.94094 56.9255H0.548828V40.4937H23.91V40.4946ZM3.97324 43.7239V49.975H20.467V43.7239H3.97324Z" fill="#2E454D"/>
    <path d="M0.540039 37.0907V33.9302H57.5405V37.0907H0.540039Z" fill="#2E454D"/>
</svg>
