<svg width="210" height="42" viewBox="0 0 210 42" fill="none" xmlns="http://www.w3.org/2000/svg">
<path d="M160.675 0.79126C160.791 1.00037 160.88 1.22849 161.024 1.41859C162.692 3.62165 164.369 5.82049 166.037 8.02355C166.289 8.3594 166.512 8.71637 166.854 9.22119H163.795V10.5392C164.138 10.6005 164.51 10.666 164.988 10.7483V37.5082H209.644V41.0885H2.15625V37.692C2.21076 37.6329 2.2282 37.5991 2.25872 37.5822C2.28707 37.5632 2.32413 37.5568 2.35902 37.5505C2.43096 37.5399 2.50291 37.5273 2.57486 37.5251C2.68388 37.5188 2.79289 37.5188 2.9019 37.5188C53.8658 37.5125 104.832 37.5061 155.796 37.4977C155.831 37.4977 155.866 37.4829 156.031 37.4428C156.044 37.1133 156.071 36.7436 156.071 36.3761C156.073 28.2524 156.071 20.1267 156.071 12.003V10.7167C156.531 10.6702 156.879 10.6343 157.294 10.592V9.27188H154.3C154.485 8.92548 154.564 8.71637 154.695 8.54105C156.443 6.22182 158.201 3.90892 159.949 1.5918C160.139 1.34044 160.289 1.05951 160.457 0.793372C160.529 0.793372 160.603 0.793372 160.675 0.793372V0.79126ZM162.703 10.5899V9.29512H158.362V10.5899H162.703Z" fill="#9C231B"/>
<path d="M0.582031 20.7541C0.715028 20.2915 0.843664 19.8289 0.981021 19.3685C1.99921 15.972 3.92221 13.2409 7.2057 11.5194C8.45936 10.8625 9.81113 10.4738 11.2174 10.2943C16.7967 9.57826 21.8615 11.7855 24.7831 16.0523C24.8223 16.1093 24.8398 16.179 24.9161 16.3606C22.3433 17.2583 19.775 18.1539 17.2589 19.0305C16.679 18.5531 16.195 18.0758 15.6303 17.7061C14.429 16.9204 13.1557 16.9795 11.9434 17.666C10.4892 18.4877 9.80023 19.8247 9.59746 21.3772C9.42304 22.7079 9.53206 24.0302 10.2058 25.2553C11.2828 27.2154 13.6964 28.0307 15.5583 27.0422C16.0947 26.7571 16.6049 26.4149 16.6943 25.6883C15.5322 25.4517 14.3657 25.7157 13.1273 25.5066C12.9333 23.745 13.0576 21.9855 13.051 20.245C13.9755 20.0465 25.3434 20.0275 26.3965 20.2113C26.6167 20.8745 26.4946 21.5736 26.4597 22.258C26.3703 24.0069 26.1305 25.7284 25.4241 27.3654C24.6217 29.2242 23.3615 30.7175 21.6457 31.856C19.352 33.3789 16.7989 34.2956 14.0343 34.3442C10.1709 34.4139 6.65191 33.3831 3.90695 30.5739C2.43744 29.07 1.4803 27.283 0.9723 25.2722C0.874188 24.8793 0.712848 24.5012 0.582031 24.1147C0.582031 22.9931 0.582031 21.8736 0.582031 20.752V20.7541Z" fill="black"/>
<path d="M43.7318 24.4591C45.4564 26.998 47.1156 29.4398 48.9034 32.0674C51.5721 24.8013 54.1644 17.738 56.7589 10.6747H66.4786C69.2628 18.3653 72.0405 26.0391 74.8552 33.8121C73.8 34.0888 72.7905 33.9219 71.7985 33.9494C70.7476 33.9811 69.6923 33.9705 68.6414 33.9515C67.6363 33.9325 66.6225 34.0402 65.5847 33.8691C65.2882 32.889 65.0047 31.9575 64.7039 30.9648H58.32C58.0562 31.9026 57.7859 32.8658 57.5242 33.791C56.6216 34.0001 41.3924 34.0191 40.3524 33.8163C39.0617 31.4865 37.7513 29.1208 36.441 26.753C36.3886 26.7593 36.3363 26.7678 36.284 26.7741V33.829C35.2789 34.0529 34.3435 33.9282 33.4213 33.9473C32.4423 33.9684 31.4612 33.9684 30.4823 33.9473C29.5535 33.9261 28.6116 34.0508 27.6436 33.8374V10.7549C27.8747 10.7084 28.0752 10.6345 28.278 10.6345C32.1981 10.6387 36.1183 10.6218 40.0362 10.6789C41.5602 10.7021 43.0559 10.9619 44.4142 11.7329C46.3852 12.8503 47.5059 14.5422 48.0422 16.629C48.4565 18.2322 48.33 19.8016 47.6977 21.3583C47.096 22.8369 46.0625 23.8022 44.4949 24.2521C44.2878 24.3112 44.0785 24.364 43.7318 24.457V24.4591ZM36.3363 21.1513C37.0863 21.0669 37.7644 21.0225 38.4272 20.9105C39.5631 20.7162 39.9774 20.2431 40.0319 19.1342C40.045 18.8553 40.0253 18.5744 40.0035 18.2956C39.949 17.5964 39.5479 17.1233 38.9003 16.8572C38.0827 16.5213 37.2346 16.458 36.3341 16.6354V21.1492L36.3363 21.1513ZM63.1319 25.3272C62.5541 22.8454 61.9851 20.4036 61.3877 17.8351C60.8927 20.3888 60.2321 22.7968 59.8288 25.3272H63.1297H63.1319Z" fill="black"/>
<path d="M99.6907 10.6494C99.7626 10.9155 99.8607 11.1141 99.8607 11.3105C99.8694 18.7963 99.8673 26.2799 99.8673 33.8396C98.8447 34.0635 97.905 33.9283 96.9784 33.9516C95.9995 33.9748 95.0183 33.9621 94.0394 33.9558C93.1041 33.9494 92.1665 33.9326 91.205 33.9199C88.8198 30.0355 86.4782 26.2208 83.997 22.1801C84.069 23.6608 84.1518 24.9091 84.1824 26.1574C84.2129 27.4163 84.1911 28.6773 84.1889 29.9383C84.1846 31.2226 84.2064 32.5089 84.1758 33.753C83.2121 34.0149 76.776 34.0276 75.8472 33.8037C75.8232 33.7784 75.797 33.7551 75.7796 33.7277C75.76 33.6981 75.7316 33.6664 75.7316 33.6347C75.7164 26.3179 75.7033 19.0012 75.6924 11.6844C75.6924 11.4394 75.7033 11.1943 75.7229 10.9514C75.7273 10.8881 75.7818 10.8289 75.8668 10.6642C78.5878 10.586 81.3676 10.6494 84.2303 10.624C86.6461 14.5317 89.0531 18.4287 91.4972 22.3807V10.6811C94.2073 10.5776 96.9392 10.6367 99.695 10.6494H99.6907Z" fill="black"/>
<path d="M167.239 10.6743H175.707C178.18 14.4594 180.478 18.4156 182.979 22.3528V10.8052C183.685 10.5813 189.999 10.5391 191.172 10.7693V33.7969C190.252 34.0208 183.611 34.0166 182.628 33.7821C180.325 30.0625 177.995 26.2921 175.524 22.2979C175.577 24.4059 175.64 26.2647 175.664 28.1234C175.688 30.0054 175.668 31.8874 175.668 33.7272C174.698 34.0419 168.118 34.0335 167.239 33.7441V10.6743Z" fill="black"/>
<path d="M102.063 33.9578C101.836 32.8193 101.856 11.5237 102.055 10.6957C102.181 10.6746 102.321 10.6323 102.458 10.6323C105.724 10.6429 108.99 10.5964 112.252 10.6978C114.24 10.7591 116.224 11.0696 118.062 11.8743C121.727 13.4775 123.927 16.2424 124.712 20.0212C125.316 22.9319 124.895 25.7179 123.317 28.3096C122.292 29.9931 120.785 31.1633 119.058 32.1011C117.096 33.1657 114.966 33.7043 112.729 33.774C109.542 33.8733 106.352 33.9007 103.164 33.9578C102.809 33.9641 102.456 33.9578 102.061 33.9578H102.063ZM110.636 26.755C111.515 26.6473 112.356 26.6283 113.148 26.4298C114.615 26.0622 115.601 25.1751 116 23.705C116.303 22.5855 116.228 21.4871 115.939 20.3951C115.723 19.5734 115.204 18.9292 114.369 18.6398C113.593 18.3716 112.781 18.1857 111.973 18.0294C111.541 17.947 111.081 17.6978 110.636 17.9745V26.755Z" fill="black"/>
<path d="M193.487 10.6828H209.459V16.9688H202.11V19.2035H208.805C209.056 20.1118 209.065 24.1124 208.821 25.122C207.746 25.2234 206.632 25.1516 205.522 25.1643C204.406 25.1769 203.287 25.1664 202.099 25.1664V27.4349C203.331 27.5194 204.589 27.4603 205.845 27.4708C207.103 27.4814 208.363 27.4729 209.68 27.4729V33.8181C208.679 34.0103 194.433 34.004 193.567 33.8223C193.541 33.797 193.513 33.7758 193.491 33.7463C193.472 33.7188 193.45 33.685 193.445 33.6533C193.421 33.516 193.389 33.3787 193.389 33.2414C193.389 25.8571 193.389 18.4706 193.395 11.0862C193.395 10.9869 193.439 10.8877 193.487 10.6807V10.6828Z" fill="black"/>
<path d="M137.205 33.8457V10.6365C140.075 10.6217 142.889 10.6322 145.654 10.6301C146.033 11.0167 145.898 11.4222 145.898 11.7897C145.909 16.2022 145.905 20.6147 145.905 25.0271V26.2522C147.394 26.2522 148.765 26.2501 150.134 26.2522C151.501 26.2564 152.871 26.2353 154.296 26.2712V33.8246C154.028 33.8689 153.758 33.9534 153.485 33.9534C148.331 33.9619 143.177 33.9598 138.023 33.9534C137.779 33.9534 137.535 33.8901 137.203 33.8457H137.205Z" fill="black"/>
</svg>
