<svg width="145" height="38" viewBox="0 0 145 38" fill="none" xmlns="http://www.w3.org/2000/svg">
    <path d="M77.5196 24.2558C75.9504 21.7903 74.3929 19.3151 72.8005 16.8625C72.5265 16.4403 72.5531 16.205 72.9101 15.844C75.4157 13.3028 77.8948 10.7357 80.3822 8.17676C80.53 8.02206 80.6711 7.86253 80.9351 7.5773C78.7782 7.5773 76.7873 7.55636 74.7997 7.60148C74.5075 7.60792 74.1637 7.87703 73.9429 8.11231C71.2945 10.9291 68.6626 13.762 66.0324 16.5934C65.9062 16.7287 65.8266 16.9028 65.7253 17.0591C65.6655 17.0204 65.604 16.9801 65.5443 16.9414V0.230713H60.1494V37.6485H65.526C65.5077 37.4519 65.4911 37.2618 65.4911 37.07C65.4895 32.7449 65.4795 28.4198 65.5094 24.0946C65.5111 23.7401 65.6954 23.3179 65.9378 23.0472C66.8477 22.0384 67.8158 21.0796 68.8503 20.0112C69.0479 20.2884 69.2205 20.5092 69.3716 20.7444C71.2928 23.7579 73.2206 26.768 75.1169 29.796C75.4074 30.2617 75.698 30.4744 76.2842 30.4599C77.9596 30.4164 79.6383 30.4438 81.4565 30.4438C80.0966 28.307 78.8081 26.2814 77.5196 24.2558Z" fill="#FFEB00"/>
    <path d="M65.5443 0.230713V16.9414C65.6041 16.9801 65.6656 17.0204 65.7253 17.0591C65.8266 16.9028 65.9063 16.7287 66.0325 16.5934C68.6627 13.762 71.2945 10.9291 73.943 8.11231C74.1638 7.87703 74.5075 7.60792 74.7998 7.60148C76.7873 7.55636 78.7782 7.5773 80.9352 7.5773C80.6712 7.86253 80.53 8.02206 80.3823 8.17676C77.8949 10.7357 75.4158 13.3028 72.9102 15.844C72.5532 16.205 72.5266 16.4403 72.8006 16.8625C74.393 19.3151 75.9505 21.7903 77.5196 24.2558C78.8081 26.2814 80.0967 28.307 81.4566 30.4438C79.6384 30.4438 77.9596 30.4164 76.2842 30.4599C75.6981 30.4744 75.4075 30.2617 75.1169 29.796C73.2207 26.768 71.2929 23.7579 69.3717 20.7444C69.2206 20.5092 69.0479 20.2884 68.8503 20.0112C67.8159 21.0796 66.8478 22.0384 65.9379 23.0472C65.6954 23.3179 65.5111 23.7401 65.5095 24.0946C65.4796 28.4198 65.4895 32.7449 65.4912 37.07C65.4912 37.2618 65.5078 37.4519 65.5261 37.6485H144.518V0.230713H65.5443ZM102.42 23.3228C102.285 27.8397 99.7532 30.3471 95.1039 30.8966C93.0035 31.1447 90.908 31.0916 88.844 30.5678C85.4168 29.6977 83.2997 27.2579 83.21 23.579C83.0805 18.2934 83.1768 13.0014 83.1768 7.61759H88.4388V8.44265C88.4388 12.8999 88.4372 17.3588 88.4388 21.8177C88.4388 22.2205 88.4322 22.6234 88.4604 23.0246C88.5833 24.7731 89.5829 25.9688 91.3496 26.2894C92.2031 26.4441 93.1214 26.4764 93.9815 26.3587C95.8611 26.1009 96.8906 25.0003 97.1496 23.1503C97.2161 22.6733 97.236 22.1867 97.2376 21.7049C97.2443 17.3008 97.241 12.8967 97.241 8.491V7.63532H102.428C102.453 7.76101 102.501 7.88831 102.501 8.01562C102.486 13.1191 102.569 18.2241 102.42 23.3228ZM121.575 30.4002H105.678V7.62243H110.842C110.863 8.03334 110.902 8.4491 110.902 8.86324C110.907 14.2906 110.923 19.718 110.888 25.1437C110.883 25.9108 111.129 26.0864 111.871 26.0783C114.751 26.0413 117.628 26.0654 120.507 26.0654H121.575V30.4002ZM136.973 11.9572C136.242 11.9572 135.508 11.9572 134.776 11.9556C133.474 11.9556 132.172 11.9862 130.874 11.9411C130.185 11.9185 129.972 12.1409 129.975 12.8113C129.999 18.345 129.989 23.8787 129.989 29.4124V30.4035H124.752V11.9862H117.809V7.61759H136.973V11.9572Z" fill="black"/>
    <path d="M0.679688 0.230713V37.6485H60.1493V0.230713H0.679688ZM13.4404 30.4067H8.26968V7.63048H13.4404V30.4067ZM34.7508 27.5399C33.2481 29.5655 31.111 30.5566 28.6419 30.8853C23.7934 31.5315 19.5608 30.2407 16.0108 26.934C15.9311 26.8599 15.863 26.7761 15.7717 26.6778C16.8194 25.4886 17.8555 24.3122 18.9033 23.1229C19.7568 23.7691 20.5488 24.3895 21.3641 24.9809C23.3716 26.4393 25.6664 26.7874 28.0591 26.3684C28.8495 26.2298 29.6947 25.7834 30.2725 25.2372C31.297 24.2703 30.9051 22.6943 29.5602 22.2189C28.2418 21.7516 26.852 21.4793 25.5086 21.0732C23.8498 20.572 22.1844 20.0773 20.5604 19.4795C15.6787 17.6843 16.0705 11.8912 19.0478 9.4208C20.8245 7.94794 22.8237 7.17122 25.1533 7.05036C28.9707 6.85054 32.373 7.80774 35.2921 10.2475C35.4166 10.3506 35.5329 10.465 35.7338 10.6503C34.7226 11.817 33.7163 12.9773 32.6569 14.1971C32.1605 13.8362 31.6806 13.4945 31.209 13.1416C29.2779 11.6897 27.0761 11.2176 24.7183 11.6285C23.9511 11.7622 23.1325 12.1715 22.5646 12.6888C21.58 13.588 21.9569 15.0657 23.2471 15.4686C25.0321 16.0245 26.8702 16.4225 28.6718 16.9334C29.7843 17.2476 30.8902 17.6021 31.9662 18.0195C36.0891 19.6164 37.3677 24.0157 34.7508 27.5399ZM57.0044 11.9572C55.138 11.9572 53.265 11.954 51.3936 11.9572C49.8328 11.9604 50.047 11.8396 50.0453 13.2254C50.0387 18.6512 50.0453 24.0769 50.0453 29.5027V30.3745H44.7717V29.4849C44.7717 23.9512 44.7584 18.4175 44.7883 12.8854C44.7933 12.1441 44.5841 11.9185 43.8136 11.9395C41.8543 11.9911 39.8933 11.9556 37.8509 11.9556V7.62081H57.006V11.9556L57.0044 11.9572Z" fill="black"/>
    <path d="M83.1759 7.61792H88.4379C88.4379 7.92248 88.4379 8.18193 88.4379 8.44298C88.4379 12.9019 88.4379 17.3591 88.4379 21.818C88.4379 22.2209 88.4313 22.6253 88.4595 23.0266C88.5824 24.7734 89.582 25.9707 91.3487 26.2914C92.2039 26.4461 93.1204 26.4783 93.9806 26.3607C95.8619 26.1028 96.8913 25.0022 97.1487 23.1523C97.2151 22.6753 97.2367 22.1886 97.2367 21.7068C97.2434 17.3027 97.2417 12.897 97.2417 8.49294C97.2417 8.22866 97.2417 7.96277 97.2417 7.63565H102.429C102.454 7.76134 102.502 7.88864 102.502 8.01756C102.487 13.1194 102.572 18.2245 102.421 23.3247C102.288 27.8416 99.7557 30.349 95.1063 30.8985C93.0059 31.1467 90.9087 31.0935 88.8464 30.5698C85.4192 29.6996 83.3021 27.2599 83.2124 23.5809C83.0846 18.2938 83.1792 13.0034 83.1792 7.61792H83.1759Z" fill="#FFEB00"/>
    <path d="M124.751 11.9866H117.809V7.61792H136.97V11.9575C136.241 11.9575 135.507 11.9575 134.774 11.9575C133.473 11.9575 132.172 11.9882 130.871 11.943C130.184 11.9189 129.97 12.1429 129.973 12.8116C129.996 18.3453 129.986 23.879 129.986 29.4128C129.986 29.7286 129.986 30.0444 129.986 30.4038H124.749V11.9866H124.751Z" fill="#FFEB00"/>
    <path d="M121.574 26.0656V30.4004H105.677V7.62256H110.841C110.861 8.03509 110.901 8.44923 110.901 8.86499C110.906 14.2923 110.922 19.7181 110.887 25.1454C110.882 25.9109 111.128 26.0881 111.87 26.0785C114.748 26.043 117.627 26.0656 120.505 26.0672C120.833 26.0672 121.162 26.0672 121.572 26.0672L121.574 26.0656Z" fill="#FFEB00"/>
    <path d="M15.7712 26.678C16.8189 25.4888 17.8551 24.3124 18.9028 23.1232C19.7563 23.7694 20.5484 24.3898 21.362 24.9812C23.3711 26.4411 25.6642 26.7876 28.057 26.3686C28.8474 26.23 29.6925 25.7837 30.2704 25.2374C31.2949 24.2705 30.903 22.6945 29.558 22.2191C28.2396 21.7518 26.8498 21.4811 25.5065 21.075C23.8477 20.5739 22.1823 20.0775 20.5583 19.4813C15.6765 17.6861 16.0684 11.893 19.0456 9.42263C20.8223 7.94816 22.8215 7.17305 25.1512 7.05058C28.9686 6.85076 32.3709 7.80796 35.2916 10.2477C35.4162 10.3524 35.5307 10.4652 35.7333 10.6506C34.7204 11.8172 33.7158 12.9775 32.6565 14.1974C32.16 13.8364 31.6785 13.4948 31.2085 13.1402C29.2774 11.6899 27.0756 11.2162 24.7178 11.6271C23.9523 11.7608 23.132 12.1702 22.5642 12.6874C21.5795 13.585 21.9564 15.0643 23.2466 15.4656C25.0333 16.0215 26.8697 16.4195 28.6714 16.9304C29.7839 17.2462 30.8897 17.5991 31.9657 18.0165C36.0887 19.615 37.3672 24.0143 34.7503 27.5385C33.2476 29.5641 31.1122 30.5552 28.6415 30.8839C23.7929 31.5301 19.5587 30.2377 16.0086 26.931C15.9306 26.8585 15.8625 26.7747 15.7695 26.6748L15.7712 26.678Z" fill="#FFEB00"/>
    <path d="M37.8496 11.9574V7.62256H57.0064V11.9574C55.14 11.9574 53.267 11.9541 51.3957 11.9574C49.8348 11.9606 50.049 11.8397 50.0474 13.2256C50.0407 18.6513 50.0457 24.0771 50.0474 29.5028C50.0474 29.7703 50.0474 30.0362 50.0474 30.3746H44.7721C44.7721 30.099 44.7721 29.7913 44.7721 29.4851C44.7721 23.9514 44.7588 18.4193 44.7887 12.8855C44.792 12.1443 44.5845 11.9187 43.814 11.9396C41.8547 11.9912 39.8936 11.9574 37.8513 11.9574H37.8496Z" fill="#FFEB00"/>
    <path d="M13.4402 30.4068H8.26953V7.63062H13.4402V30.4068Z" fill="#FFEB00"/>
</svg>
