<svg width="283" height="48" viewBox="0 0 283 48" fill="none" xmlns="http://www.w3.org/2000/svg">
    <path fill-rule="evenodd" clip-rule="evenodd" d="M48.3854 37.8503L38.8631 47.0754H3.6345L0.767578 44.298V10.1687L10.2899 0.943604H45.5185L48.3854 3.72106V37.8503Z" fill="#ED1C24"/>
    <path fill-rule="evenodd" clip-rule="evenodd" d="M45.5185 0.943604L34.8059 11.3157V26.4615L26.0323 14.7813H7.53813V18.4577H12.9904V32.4504L0.767578 44.298V47.0754H3.6345L17.0988 34.0313V18.4577H22.5511V33.2315H26.6019V21.5575L35.3754 33.2315H38.8631V12.9462L48.3854 3.72106V0.943604H45.5185Z" fill="#FFF9F2"/>
    <path fill-rule="evenodd" clip-rule="evenodd" d="M63.6155 19.2639H57.9072V14.7815H74.6096V19.2639H68.9014V33.2317H63.6219V19.2639H63.6155Z" fill="black"/>
    <path fill-rule="evenodd" clip-rule="evenodd" d="M77.3887 14.7815H92.7088V19.1337H82.6106V21.9297H91.7553V25.9657H82.6106V28.8858H92.8432V33.2379H77.3887V14.7815Z" fill="black"/>
    <path fill-rule="evenodd" clip-rule="evenodd" d="M101.531 23.8516L95.2727 14.7815H101.339L104.712 19.9768L108.116 14.7815H114.048L107.79 23.7958L114.324 33.2317H108.251L104.603 27.6706L100.936 33.2317H95.0039L101.531 23.8516Z" fill="black"/>
    <path fill-rule="evenodd" clip-rule="evenodd" d="M116.82 14.7815H122.093V21.6941H128.87V14.7815H134.15V33.2317H128.87V26.2199H122.093V33.2317H116.82V14.7815Z" fill="black"/>
    <path fill-rule="evenodd" clip-rule="evenodd" d="M137.318 24.006C137.318 18.7053 141.727 14.4089 147.602 14.4089C153.476 14.4089 157.828 18.6557 157.828 24.006C157.828 29.3564 153.419 33.6031 147.544 33.6031C141.67 33.6031 137.312 29.3564 137.312 24.006H137.318ZM152.446 24.006C152.446 21.3464 150.462 19.0215 147.551 19.0215C144.639 19.0215 142.732 21.2906 142.732 24.006C142.732 26.7215 144.722 28.9844 147.602 28.9844C150.513 28.9844 152.446 26.7215 152.446 24.006Z" fill="black"/>
    <path fill-rule="evenodd" clip-rule="evenodd" d="M161.025 14.7815H166.311V21.6941H173.082V14.7815H178.361V33.2317H173.082V26.2199H166.311V33.2317H161.025V14.7815Z" fill="black"/>
    <path fill-rule="evenodd" clip-rule="evenodd" d="M182.472 14.7815H187.694V25.166L195.072 14.7815H199.993V33.2317H194.771V22.8535L187.393 33.2317H182.472V14.7815Z" fill="black"/>
    <path fill-rule="evenodd" clip-rule="evenodd" d="M204.102 14.7815H209.381V22.2707L215.934 14.7815H222.199L214.987 22.7171L222.442 33.2379H216.1L211.314 26.3811L209.381 28.4642V33.2379H204.102V14.7815Z" fill="black"/>
    <path fill-rule="evenodd" clip-rule="evenodd" d="M222.479 24.006C222.479 18.7053 226.882 14.4089 232.763 14.4089C238.644 14.4089 242.996 18.6557 242.996 24.006C242.996 29.3564 238.587 33.6031 232.712 33.6031C226.837 33.6031 222.486 29.3564 222.486 24.006H222.479ZM237.601 24.006C237.601 21.3464 235.617 19.0215 232.706 19.0215C229.794 19.0215 227.893 21.2906 227.893 24.006C227.893 26.7215 229.877 28.9844 232.763 28.9844C235.675 28.9844 237.608 26.7215 237.608 24.006H237.601Z" fill="black"/>
    <path fill-rule="evenodd" clip-rule="evenodd" d="M266.578 14.7815H271.858V20.5782H274.744C279.313 20.5782 282.66 22.6861 282.66 26.8523C282.66 31.0185 279.665 33.2317 275.019 33.2317H266.585V14.7815H266.578ZM274.603 28.9354C276.344 28.9354 277.38 28.1728 277.38 26.7221C277.38 25.4325 276.344 24.5894 274.635 24.5894H271.858V28.9354H274.609H274.603Z" fill="black"/>
    <path fill-rule="evenodd" clip-rule="evenodd" d="M247.668 14.7815V22.8721C247.668 24.7878 247.469 27.5528 246.164 28.5324C245.549 28.9912 244.545 29.3445 243.898 29.3445V33.6967H244.398C246.221 33.6967 248.269 32.99 249.056 32.5002C252.243 30.5411 252.634 26.8213 252.634 22.6117V19.2639H257.19V33.2317H262.469V14.7815H247.668Z" fill="black"/>
</svg>
